<svg xmlns="http://www.w3.org/2000/svg" version="1" x="0" y="0" width="64" height="64" viewBox="0 0 64 64" enable-background="new 0 0 64 64" xml:space="preserve"><path fill="#FFFFFF" d="M16 0C7.2 0 0 7.2 0 16s7.2 16 16 16 16-7.2 16-16S24.8 0 16 0zM16 29.5c-7.5 0-13.5-6-13.5-13.5S8.5 2.5 16 2.5s13.5 6 13.5 13.5S23.5 29.5 16 29.5z"/><path fill="#FFFFFF" d="M12.324 20.941v-5.242H6.215v5.242H5.176V9.738h1.039v5.023h6.109V9.738h1.039v11.203H12.324zM20.832 21.129c-0.792 0-1.509-0.139-2.152-0.414 -0.644-0.276-1.193-0.663-1.648-1.16 -0.456-0.497-0.808-1.094-1.055-1.789 -0.248-0.695-0.371-1.462-0.371-2.301 0-0.901 0.126-1.715 0.379-2.441 0.252-0.727 0.613-1.348 1.082-1.863s1.038-0.913 1.707-1.191c0.669-0.278 1.42-0.418 2.254-0.418 0.76 0 1.454 0.137 2.082 0.41 0.627 0.273 1.167 0.659 1.617 1.156 0.45 0.497 0.799 1.091 1.047 1.781 0.247 0.69 0.371 1.452 0.371 2.285 0 1.208-0.212 2.251-0.637 3.129 -0.425 0.878-1.017 1.556-1.777 2.035l3.094 2.102h-1.891l-2.25-1.609c-0.281 0.094-0.576 0.165-0.883 0.215C21.493 21.104 21.17 21.129 20.832 21.129zM20.918 10.496c-0.62 0-1.189 0.118-1.707 0.355 -0.519 0.237-0.964 0.569-1.336 0.996 -0.373 0.427-0.663 0.938-0.871 1.535 -0.208 0.597-0.312 1.257-0.312 1.98 0 0.729 0.099 1.391 0.297 1.984 0.198 0.594 0.477 1.102 0.836 1.523s0.793 0.747 1.301 0.977 1.074 0.344 1.699 0.344c0.651 0 1.237-0.109 1.758-0.328 0.521-0.219 0.965-0.536 1.332-0.953s0.649-0.926 0.848-1.527c0.198-0.602 0.297-1.282 0.297-2.043 0-0.766-0.097-1.448-0.289-2.047 -0.193-0.599-0.469-1.105-0.828-1.52s-0.794-0.73-1.305-0.949C22.126 10.605 21.553 10.496 20.918 10.496z"/><path fill="#FFFFFF" d="M16 32C7.2 32 0 39.2 0 48s7.2 16 16 16 16-7.2 16-16S24.8 32 16 32zM16 61.5c-7.5 0-13.5-6-13.5-13.5s6-13.5 13.5-13.5 13.5 6 13.5 13.5S23.5 61.5 16 61.5z"/><path fill="#FFFFFF" d="M6.5 52.941V41.738h1.039v10.258h4.5v0.945H6.5zM20.832 53.129c-0.792 0-1.509-0.139-2.152-0.414 -0.644-0.275-1.193-0.662-1.648-1.16 -0.456-0.497-0.808-1.094-1.055-1.789 -0.248-0.695-0.371-1.462-0.371-2.301 0-0.9 0.126-1.715 0.379-2.441 0.252-0.727 0.613-1.348 1.082-1.863s1.038-0.912 1.707-1.191c0.669-0.278 1.42-0.418 2.254-0.418 0.76 0 1.454 0.137 2.082 0.41 0.627 0.273 1.167 0.659 1.617 1.156 0.45 0.498 0.799 1.092 1.047 1.781 0.247 0.69 0.371 1.452 0.371 2.285 0 1.209-0.212 2.252-0.637 3.129 -0.425 0.878-1.017 1.557-1.777 2.035l3.094 2.102h-1.891l-2.25-1.609c-0.281 0.094-0.576 0.165-0.883 0.215C21.493 53.104 21.17 53.129 20.832 53.129zM20.918 42.496c-0.62 0-1.189 0.119-1.707 0.355 -0.519 0.237-0.964 0.569-1.336 0.996 -0.373 0.428-0.663 0.939-0.871 1.535 -0.208 0.597-0.312 1.257-0.312 1.98 0 0.729 0.099 1.391 0.297 1.984 0.198 0.594 0.477 1.102 0.836 1.523s0.793 0.748 1.301 0.977c0.508 0.229 1.074 0.344 1.699 0.344 0.651 0 1.237-0.109 1.758-0.328 0.521-0.219 0.965-0.536 1.332-0.953 0.367-0.416 0.649-0.926 0.848-1.527 0.198-0.602 0.297-1.282 0.297-2.043 0-0.766-0.097-1.447-0.289-2.047 -0.193-0.599-0.469-1.105-0.828-1.52s-0.794-0.73-1.305-0.949C22.126 42.605 21.553 42.496 20.918 42.496z"/><path fill="#9A9999" d="M48 0c-8.8 0-16 7.2-16 16s7.2 16 16 16 16-7.2 16-16S56.8 0 48 0zM48 29.5c-7.5 0-13.5-6-13.5-13.5S40.5 2.5 48 2.5s13.5 6 13.5 13.5S55.5 29.5 48 29.5z"/><path fill="#9A9999" d="M44.324 20.941v-5.242h-6.109v5.242h-1.039V9.738h1.039v5.023h6.109V9.738h1.039v11.203H44.324zM52.832 21.129c-0.792 0-1.51-0.139-2.152-0.414 -0.644-0.276-1.193-0.663-1.648-1.16 -0.456-0.497-0.808-1.094-1.055-1.789 -0.248-0.695-0.371-1.462-0.371-2.301 0-0.901 0.126-1.715 0.379-2.441 0.252-0.727 0.613-1.348 1.082-1.863s1.037-0.913 1.707-1.191c0.669-0.278 1.42-0.418 2.254-0.418 0.76 0 1.454 0.137 2.082 0.41 0.627 0.273 1.166 0.659 1.617 1.156 0.45 0.497 0.799 1.091 1.047 1.781 0.247 0.69 0.371 1.452 0.371 2.285 0 1.208-0.213 2.251-0.637 3.129 -0.425 0.878-1.018 1.556-1.777 2.035l3.094 2.102h-1.891l-2.25-1.609c-0.281 0.094-0.576 0.165-0.883 0.215C53.493 21.104 53.17 21.129 52.832 21.129zM52.918 10.496c-0.62 0-1.189 0.118-1.707 0.355 -0.519 0.237-0.964 0.569-1.336 0.996 -0.373 0.427-0.663 0.938-0.871 1.535 -0.209 0.597-0.312 1.257-0.312 1.98 0 0.729 0.099 1.391 0.297 1.984 0.197 0.594 0.477 1.102 0.836 1.523s0.793 0.747 1.301 0.977 1.074 0.344 1.699 0.344c0.65 0 1.236-0.109 1.758-0.328 0.521-0.219 0.965-0.536 1.332-0.953s0.649-0.926 0.848-1.527c0.197-0.602 0.297-1.282 0.297-2.043 0-0.766-0.097-1.448-0.289-2.047 -0.193-0.599-0.469-1.105-0.828-1.52s-0.795-0.73-1.305-0.949C54.126 10.605 53.553 10.496 52.918 10.496z"/><path fill="#9A9999" d="M48 32c-8.8 0-16 7.2-16 16s7.2 16 16 16 16-7.2 16-16S56.8 32 48 32zM48 61.5c-7.5 0-13.5-6-13.5-13.5s6-13.5 13.5-13.5 13.5 6 13.5 13.5S55.5 61.5 48 61.5z"/><path fill="#9A9999" d="M38.5 53.602V42.398h1.039v10.258h4.5v0.945H38.5zM52.832 53.129c-0.792 0-1.51-0.139-2.152-0.414 -0.644-0.275-1.193-0.662-1.648-1.16 -0.456-0.497-0.808-1.094-1.055-1.789 -0.248-0.695-0.371-1.462-0.371-2.301 0-0.9 0.126-1.715 0.379-2.441 0.252-0.727 0.613-1.348 1.082-1.863s1.037-0.912 1.707-1.191c0.669-0.278 1.42-0.418 2.254-0.418 0.76 0 1.454 0.137 2.082 0.41 0.627 0.273 1.166 0.659 1.617 1.156 0.45 0.498 0.799 1.092 1.047 1.781 0.247 0.69 0.371 1.452 0.371 2.285 0 1.209-0.213 2.252-0.637 3.129 -0.425 0.878-1.018 1.557-1.777 2.035l3.094 2.102h-1.891l-2.25-1.609c-0.281 0.094-0.576 0.165-0.883 0.215C53.493 53.104 53.17 53.129 52.832 53.129zM52.918 42.496c-0.62 0-1.189 0.119-1.707 0.355 -0.519 0.237-0.964 0.569-1.336 0.996 -0.373 0.428-0.663 0.939-0.871 1.535 -0.209 0.597-0.312 1.257-0.312 1.98 0 0.729 0.099 1.391 0.297 1.984 0.197 0.594 0.477 1.102 0.836 1.523s0.793 0.748 1.301 0.977c0.508 0.229 1.074 0.344 1.699 0.344 0.65 0 1.236-0.109 1.758-0.328 0.521-0.219 0.965-0.536 1.332-0.953 0.367-0.416 0.649-0.926 0.848-1.527 0.197-0.602 0.297-1.282 0.297-2.043 0-0.766-0.097-1.447-0.289-2.047 -0.193-0.599-0.469-1.105-0.828-1.52s-0.795-0.73-1.305-0.949C54.126 42.605 53.553 42.496 52.918 42.496z"/></svg>