<?xml version="1.0" encoding="utf-8"?>
<!-- Generator: Adobe Illustrator 17.1.0, SVG Export Plug-In . SVG Version: 6.00 Build 0)  -->
<!DOCTYPE svg PUBLIC "-//W3C//DTD SVG 1.1//EN" "http://www.w3.org/Graphics/SVG/1.1/DTD/svg11.dtd">
<svg version="1.1" id="Layer_1" xmlns="http://www.w3.org/2000/svg" xmlns:xlink="http://www.w3.org/1999/xlink" x="0px" y="0px"
	 width="960px" height="560px" viewBox="0 0 960 560" enable-background="new 0 0 960 560" xml:space="preserve">
<g>
	<path fill="#FFFFFF" d="M17.5,3.7L9.6,5.5C9.4,5.5,9.3,5.8,9.3,6v9.9c0,0.3-0.2,0.5-0.5,0.5c0,0-0.1,0-0.1,0l0,0
		c-0.2-0.1-0.5-0.1-0.7-0.1c-1.3,0-2.3,0.8-2.3,1.9c0,1,1,1.9,2.3,1.9c1.3,0,2.3-0.8,2.3-1.9c0-0.6,0-8.7,0-8.7
		c0-0.2,0.2-0.4,0.4-0.5l6-1.4c0.2,0,0.4,0.1,0.4,0.3v6.3l0,0c0,0.3-0.2,0.5-0.5,0.5c0,0-0.1,0-0.1,0l0,0c-0.2-0.1-0.5-0.1-0.7-0.1
		c-1.3,0-2.3,0.8-2.3,1.9c0,1,1,1.9,2.3,1.9c1.3,0,2.3-0.8,2.3-1.9l0-12.6C17.8,3.8,17.7,3.7,17.5,3.7z"/>
	<path fill="#FFFFFF" d="M23,23H2V2h21 M25,0H0v25h25V0L25,0z"/>
</g>
<g>
	<g>
		<g>
			<g>
				<rect x="30" y="0" fill="#FFFFFF" width="20" height="3.1"/>
				<rect x="30" y="10.9" fill="#FFFFFF" width="20" height="3.1"/>
				<rect x="30" y="21.9" fill="#FFFFFF" width="20" height="3.1"/>
			</g>
			<g>
				<rect x="25" y="0" fill="#FFFFFF" width="2.5" height="3.1"/>
				<rect x="25" y="10.9" fill="#FFFFFF" width="2.5" height="3.1"/>
				<rect x="25" y="21.9" fill="#FFFFFF" width="2.5" height="3.1"/>
			</g>
		</g>
	</g>
</g>
<line fill="#FFFFFF" x1="26" y1="0" x2="26" y2="2"/>
<g>
</g>
<g>
</g>
<g>
</g>
<g>
</g>
<g>
</g>
<g>
</g>
<g>
</g>
<g>
</g>
<g>
</g>
<g>
</g>
<g>
</g>
<g>
</g>
<g>
</g>
<g>
</g>
<g>
</g>
</svg>
