<?xml version="1.0" encoding="utf-8"?>
<!-- Generator: Adobe Illustrator 17.1.0, SVG Export Plug-In . SVG Version: 6.00 Build 0)  -->
<!DOCTYPE svg PUBLIC "-//W3C//DTD SVG 1.1//EN" "http://www.w3.org/Graphics/SVG/1.1/DTD/svg11.dtd">
<svg version="1.1" id="Layer_1" xmlns="http://www.w3.org/2000/svg" xmlns:xlink="http://www.w3.org/1999/xlink" x="0px" y="0px"
	 width="960px" height="560px" viewBox="0 0 960 560" enable-background="new 0 0 960 560" xml:space="preserve">
<g>
	<path fill="#FFFFFF" d="M7.6,23.3C7,23.9,6.5,24.4,5.9,25C-1.5,19.2-2.4,6.9,5.8,0c0.6,0.6,1.1,1.1,1.7,1.7c-3.2,2.9-5,6.4-5,10.8
		C2.5,16.9,4.3,20.5,7.6,23.3z"/>
	<path fill="#FFFFFF" d="M25.4,23.3c3.3-2.8,5.1-6.4,5.1-10.8c0-4.4-1.8-7.9-5-10.8c0.6-0.6,1.1-1.1,1.7-1.7
		c7.8,6.6,7.6,18.6-0.1,25C26.6,24.4,26,23.9,25.4,23.3z"/>
	<path fill="#FFFFFF" d="M21.2,19c4.5-3.2,4.6-9.8,0.1-13.1c0.6-0.6,1.1-1.1,1.7-1.7c5.3,4,5.5,12.3-0.1,16.5
		C22.3,20.2,21.7,19.6,21.2,19z"/>
	<path fill="#FFFFFF" d="M11.9,19.1c0,0-0.1,0.1-0.1,0.1c-0.5,0.5-1.1,1.1-1.6,1.6C4.7,16.8,4.5,8.5,10,4.2c0.6,0.6,1.1,1.1,1.7,1.7
		c-2.1,1.7-3.3,3.8-3.3,6.6C8.5,15.3,9.7,17.4,11.9,19.1z"/>
	<path fill="#FFFFFF" d="M16.5,9.4c1.7,0,3.1,1.4,3.1,3.1c0,1.7-1.4,3.1-3.1,3.1c-1.7,0-3.1-1.4-3.1-3.1
		C13.4,10.8,14.8,9.4,16.5,9.4z"/>
</g>
<g>
</g>
<g>
</g>
<g>
</g>
<g>
</g>
<g>
</g>
<g>
</g>
<g>
</g>
<g>
</g>
<g>
</g>
<g>
</g>
<g>
</g>
<g>
</g>
<g>
</g>
<g>
</g>
<g>
</g>
</svg>
