<?xml version="1.0" encoding="utf-8"?>
<!-- Generator: Adobe Illustrator 17.1.0, SVG Export Plug-In . SVG Version: 6.00 Build 0)  -->
<!DOCTYPE svg PUBLIC "-//W3C//DTD SVG 1.1//EN" "http://www.w3.org/Graphics/SVG/1.1/DTD/svg11.dtd">
<svg version="1.1" id="Layer_1" xmlns="http://www.w3.org/2000/svg" xmlns:xlink="http://www.w3.org/1999/xlink" x="0px" y="0px"
	 width="90px" height="156px" viewBox="0 0 90 156" enable-background="new 0 0 90 156" xml:space="preserve">
<g>
	<g>
		<path fill="#215CAC" d="M22.5,0C10.1,0,0,10.1,0,22.5S10.1,45,22.5,45S45,34.9,45,22.5S34.9,0,22.5,0z M22.5,41.5
			c-10.5,0-19-8.5-19-19s8.5-19,19-19s19,8.5,19,19S33,41.5,22.5,41.5z"/>
		<polygon fill="#215CAC" points="16.9,29.5 30.9,22.5 16.9,15.5 		"/>
	</g>
</g>
<g>
	<g>
		<path fill="#808080" d="M67.5,0C55.1,0,45,10.1,45,22.5S55.1,45,67.5,45S90,34.9,90,22.5S79.9,0,67.5,0z M67.5,41.5
			c-10.5,0-19-8.5-19-19s8.5-19,19-19s19,8.5,19,19S78,41.5,67.5,41.5z"/>
		<polygon fill="#808080" points="61.9,29.5 75.9,22.5 61.9,15.5 		"/>
	</g>
</g>
<g>
	<path fill="#808080" d="M67.5,45C55.1,45,45,55.1,45,67.5S55.1,90,67.5,90S90,79.9,90,67.5S79.9,45,67.5,45z M67.5,86.5
		c-10.5,0-19-8.5-19-19s8.5-19,19-19s19,8.5,19,19S78,86.5,67.5,86.5z"/>
	<polygon fill="#808080" points="68.9,74.5 74.5,74.5 74.5,64.3 74.5,60.5 68.9,60.5 	"/>
	<rect x="60.5" y="60.5" fill="#808080" width="5.6" height="14.1"/>
</g>
<g>
	<path fill="#215CAC" d="M22.5,45C10.1,45,0,55.1,0,67.5S10.1,90,22.5,90S45,79.9,45,67.5S34.9,45,22.5,45z M22.5,86.5
		c-10.5,0-19-8.5-19-19s8.5-19,19-19s19,8.5,19,19S33,86.5,22.5,86.5z"/>
	<polygon fill="#215CAC" points="23.9,74.5 29.5,74.5 29.5,64.3 29.5,60.5 23.9,60.5 	"/>
	<rect x="15.5" y="60.5" fill="#215CAC" width="5.6" height="14.1"/>
</g>
<g>
	<g>
		<path fill="#215CAC" d="M16.5,123C7.4,123,0,130.4,0,139.5S7.4,156,16.5,156c9.1,0,16.5-7.4,16.5-16.5S25.6,123,16.5,123z
			 M16.5,153.4c-7.7,0-13.9-6.2-13.9-13.9s6.2-13.9,13.9-13.9c7.7,0,13.9,6.2,13.9,13.9S24.2,153.4,16.5,153.4z"/>
		<polygon fill="#215CAC" points="11.3,144.7 17.5,139.5 11.3,134.3 		"/>
		<polygon fill="#215CAC" points="17.5,138.5 17.5,144.7 19.6,144.7 19.6,134.3 17.5,134.3 		"/>
	</g>
</g>
<g>
	<g>
		<path fill="#215CAC" d="M16.5,90C7.4,90,0,97.4,0,106.5S7.4,123,16.5,123c9.1,0,16.5-7.4,16.5-16.5S25.6,90,16.5,90z M16.5,120.4
			c-7.7,0-13.9-6.2-13.9-13.9s6.2-13.9,13.9-13.9c7.7,0,13.9,6.2,13.9,13.9S24.2,120.4,16.5,120.4z"/>
		<polygon fill="#215CAC" points="19.6,111.7 19.6,101.3 13.4,106.5 		"/>
		<polygon fill="#215CAC" points="11.3,101.3 11.3,111.7 13.4,111.7 13.4,105.5 13.4,101.3 		"/>
	</g>
</g>
<g>
	<g>
		<path fill="#808080" d="M49.5,90C40.4,90,33,97.4,33,106.5S40.4,123,49.5,123c9.1,0,16.5-7.4,16.5-16.5S58.6,90,49.5,90z
			 M49.5,120.4c-7.7,0-13.9-6.2-13.9-13.9s6.2-13.9,13.9-13.9c7.7,0,13.9,6.2,13.9,13.9S57.2,120.4,49.5,120.4z"/>
		<polygon fill="#808080" points="52.6,111.7 52.6,101.3 46.4,106.5 		"/>
		<polygon fill="#808080" points="44.3,101.3 44.3,111.7 46.4,111.7 46.4,105.5 46.4,101.3 		"/>
	</g>
</g>
<g>
	<g>
		<path fill="#808080" d="M49.5,123c-9.1,0-16.5,7.4-16.5,16.5S40.4,156,49.5,156c9.1,0,16.5-7.4,16.5-16.5S58.6,123,49.5,123z
			 M49.5,153.4c-7.7,0-13.9-6.2-13.9-13.9s6.2-13.9,13.9-13.9c7.7,0,13.9,6.2,13.9,13.9S57.2,153.4,49.5,153.4z"/>
		<polygon fill="#808080" points="44.3,144.7 50.5,139.5 44.3,134.3 		"/>
		<polygon fill="#808080" points="50.5,138.5 50.5,144.7 52.6,144.7 52.6,134.3 50.5,134.3 		"/>
	</g>
</g>
<g>
</g>
<g>
</g>
<g>
</g>
<g>
</g>
<g>
</g>
<g>
</g>
<g>
</g>
<g>
</g>
<g>
</g>
<g>
</g>
<g>
</g>
<g>
</g>
<g>
</g>
<g>
</g>
<g>
</g>
</svg>
