<?xml version="1.0" encoding="utf-8"?>
<!-- Generator: Adobe Illustrator 18.0.0, SVG Export Plug-In . SVG Version: 6.00 Build 0)  -->
<!DOCTYPE svg PUBLIC "-//W3C//DTD SVG 1.1//EN" "http://www.w3.org/Graphics/SVG/1.1/DTD/svg11.dtd">
<svg version="1.1" id="Laag_1" xmlns="http://www.w3.org/2000/svg" xmlns:xlink="http://www.w3.org/1999/xlink" x="0px" y="0px"
	 width="64px" height="32px" viewBox="0 0 64 32" enable-background="new 0 0 64 32" xml:space="preserve">
<g>
	<g>
		<path fill="#FFFFFF" d="M17.8,8.5c1,0,1.5,0.7,1.5,1.5c0,1-0.9,1.9-2,1.9c-1,0-1.5-0.6-1.5-1.5C15.8,9.6,16.5,8.5,17.8,8.5z
			 M14.7,23.5c-0.8,0-1.4-0.5-0.8-2.6l0.9-3.8c0.2-0.6,0.2-0.9,0-0.9c-0.2,0-1.3,0.4-1.9,0.8l-0.4-0.7c1.9-1.6,4.2-2.6,5.1-2.6
			c0.8,0,0.9,1,0.5,2.4l-1,4c-0.2,0.7-0.1,1,0.1,1c0.2,0,1-0.3,1.8-0.9l0.5,0.6C17.6,22.8,15.5,23.5,14.7,23.5z"/>
	</g>
	<g>
		<path fill="#FFFFFF" d="M16,0C7.2,0,0,7.2,0,16s7.2,16,16,16c8.8,0,16-7.2,16-16S24.8,0,16,0z M16,29.5c-7.5,0-13.5-6-13.5-13.5
			S8.5,2.5,16,2.5c7.5,0,13.5,6,13.5,13.5S23.5,29.5,16,29.5z"/>
	</g>
</g>
<g>
	<g>
		<path fill="#999999" d="M49.8,8.5c1,0,1.5,0.7,1.5,1.5c0,1-0.9,1.9-2,1.9c-1,0-1.5-0.6-1.5-1.5C47.8,9.6,48.5,8.5,49.8,8.5z
			 M46.7,23.5c-0.8,0-1.4-0.5-0.8-2.6l0.9-3.8c0.2-0.6,0.2-0.9,0-0.9c-0.2,0-1.3,0.4-1.9,0.8l-0.4-0.7c1.9-1.6,4.2-2.6,5.1-2.6
			c0.8,0,0.9,1,0.5,2.4l-1,4c-0.2,0.7-0.1,1,0.1,1c0.2,0,1-0.3,1.8-0.9l0.5,0.6C49.6,22.8,47.5,23.5,46.7,23.5z"/>
	</g>
	<g>
		<path fill="#999999" d="M48,0c-8.8,0-16,7.2-16,16s7.2,16,16,16c8.8,0,16-7.2,16-16S56.8,0,48,0z M48,29.5
			c-7.5,0-13.5-6-13.5-13.5S40.5,2.5,48,2.5c7.5,0,13.5,6,13.5,13.5S55.5,29.5,48,29.5z"/>
	</g>
</g>
</svg>
