<?xml version="1.0" encoding="utf-8"?>
<!-- Generator: Adobe Illustrator 18.0.0, SVG Export Plug-In . SVG Version: 6.00 Build 0)  -->
<!DOCTYPE svg PUBLIC "-//W3C//DTD SVG 1.1//EN" "http://www.w3.org/Graphics/SVG/1.1/DTD/svg11.dtd">
<svg version="1.1" id="Laag_1" xmlns="http://www.w3.org/2000/svg" xmlns:xlink="http://www.w3.org/1999/xlink" x="0px" y="0px"
	 width="64px" height="64px" viewBox="0 0 64 64" enable-background="new 0 0 64 64" xml:space="preserve">
<g>
	<path fill="#FFFFFF" d="M16,0C7.2,0,0,7.2,0,16s7.2,16,16,16c8.8,0,16-7.2,16-16S24.8,0,16,0z M16,29.5c-7.5,0-13.5-6-13.5-13.5
		S8.5,2.5,16,2.5c7.5,0,13.5,6,13.5,13.5S23.5,29.5,16,29.5z"/>
	<g>
		<path fill="#FFFFFF" d="M21.4,14.9h-1.1l0-3.1c0-1.8-1.9-3.3-4.3-3.3c-2.4,0-4.3,1.5-4.3,3.3l0,3.1h-1.1c-0.6,0-1,0.5-1,0.9l0,6.7
			c0,0.5,0.5,0.9,1.1,0.9h10.7c0.6,0,1-0.5,1-0.9l0-6.7C22.4,15.4,21.9,14.9,21.4,14.9z M18.1,14.9h-4.3v-3.2c0-0.9,1-1.6,2.2-1.6
			c1.2,0,2.1,0.6,2.1,1.6L18.1,14.9z"/>
	</g>
</g>
<g>
	<path fill="#FFFFFF" d="M16,32C7.2,32,0,39.2,0,48s7.2,16,16,16c8.8,0,16-7.2,16-16S24.8,32,16,32z M16,61.5
		c-7.5,0-13.5-6-13.5-13.5s6-13.5,13.5-13.5c7.5,0,13.5,6,13.5,13.5S23.5,61.5,16,61.5z"/>
	<path fill="#FFFFFF" d="M21.4,46.9h-0.6v0h-5.8v0h-1.1v-3.2c0-0.9,1-1.6,2.2-1.6c1.2,0,2.1,0.6,2.1,1.6l0,1.2h2.2l0-1.1
		c0-1.8-1.9-3.3-4.3-3.3c-2.4,0-4.3,1.5-4.3,3.3l0,3.1h-1.1c-0.6,0-1,0.5-1,0.9l0,6.7c0,0.5,0.5,0.9,1.1,0.9h10.7c0.6,0,1-0.5,1-0.9
		l0-6.7C22.4,47.4,21.9,46.9,21.4,46.9z"/>
</g>
<g>
	<path fill="#999999" d="M48,0c-8.8,0-16,7.2-16,16s7.2,16,16,16c8.8,0,16-7.2,16-16S56.8,0,48,0z M48,29.5c-7.5,0-13.5-6-13.5-13.5
		S40.5,2.5,48,2.5c7.5,0,13.5,6,13.5,13.5S55.5,29.5,48,29.5z"/>
	<g>
		<path fill="#999999" d="M53.4,14.9h-1.1l0-3.1c0-1.8-1.9-3.3-4.3-3.3c-2.4,0-4.3,1.5-4.3,3.3l0,3.1h-1.1c-0.6,0-1,0.5-1,0.9l0,6.7
			c0,0.5,0.5,0.9,1.1,0.9h10.7c0.6,0,1-0.5,1-0.9l0-6.7C54.4,15.4,53.9,14.9,53.4,14.9z M50.1,14.9h-4.3v-3.2c0-0.9,1-1.6,2.2-1.6
			c1.2,0,2.1,0.6,2.1,1.6L50.1,14.9z"/>
	</g>
</g>
<g>
	<path fill="#999999" d="M48,32c-8.8,0-16,7.2-16,16s7.2,16,16,16c8.8,0,16-7.2,16-16S56.8,32,48,32z M48,61.5
		c-7.5,0-13.5-6-13.5-13.5s6-13.5,13.5-13.5c7.5,0,13.5,6,13.5,13.5S55.5,61.5,48,61.5z"/>
	<path fill="#999999" d="M53.4,46.9h-0.6v0h-5.8v0h-1.1v-3.2c0-0.9,1-1.6,2.2-1.6c1.2,0,2.1,0.6,2.1,1.6l0,1.2h2.2l0-1.1
		c0-1.8-1.9-3.3-4.3-3.3c-2.4,0-4.3,1.5-4.3,3.3l0,3.1h-1.1c-0.6,0-1,0.5-1,0.9l0,6.7c0,0.5,0.5,0.9,1.1,0.9h10.7c0.6,0,1-0.5,1-0.9
		l0-6.7C54.4,47.4,53.9,46.9,53.4,46.9z"/>
</g>
</svg>
