<svg xmlns="http://www.w3.org/2000/svg" version="1.1" x="0" y="0" width="78.8" height="50" viewBox="0" enable-background="new 0 0 78.8 50" xml:space="preserve"><path fill="#FFF" d="M38.7 2.2c-1.9 0.4-3.9 0.7-5.8 1.1 -6.6 1.2-13.4 2.4-20 3.6 -0.1 0-0.2 0-0.2 0 0 0 0 0.1 0 0.3 0 7.7 0 15.5 0 23.1l0 7c0 0.3-0.1 0.5-0.3 0.7 -0.2 0.2-0.5 0.2-0.7 0.2 -0.1 0-0.2 0-0.3-0.1 -0.2 0-0.3-0.1-0.5-0.1C10.3 38 9.8 38 9.3 38c-2.5 0-4.5 0.8-6.1 2.5 -1.1 1.1-1.6 2.5-1.4 3.8 0.2 1.3 1.1 2.5 2.5 3.2 1 0.5 2.3 0.8 3.6 0.8 2.6 0 5.1-1.1 6.5-2.8 0.8-0.9 1.2-1.9 1.2-2.9 0-7.6 0-15.4 0-22.9l0-3.2c0-0.2 0-0.4 0-0.7 0-0.1 0-0.2 0-0.3 0-0.4 0.3-0.8 0.7-0.8L37 10.9c0.3 0 0.5 0 0.7 0.2 0.2 0.2 0.3 0.4 0.3 0.7v20.7c0 0.4-0.3 0.8-0.7 0.9 0 0-0.1 0-0.1 0 -0.1 0-0.2 0-0.3 0 0 0-0.1 0-0.1 0 -0.1 0-0.2 0-0.3-0.1 -0.1 0-0.1 0-0.2 0 -0.6-0.1-1.1-0.1-1.6-0.1 -2.3 0-4.2 0.7-5.8 2.2 -1.1 1-1.7 2.3-1.7 3.6 0.1 1.2 0.7 2.3 1.7 3.1 1 0.7 2.2 1.2 3.5 1.3 2.4 0.2 4.6-0.4 6.4-1.8l0 2.2c-1.9 1.2-4.1 1.6-6.5 1.4 -1.7-0.1-3.2-0.7-4.4-1.6 -1.5-1.1-2.3-2.7-2.4-4.4 -0.1-1.8 0.7-3.7 2.3-5.1 1.9-1.8 4.3-2.6 7-2.6 0.5 0 1.1 0 1.6 0.1V12.8l-18.8 3.4c0 0.1 0 0.1 0 0.2l0 3.2c0 7.5 0 15.2 0 22.9 0 1.5-0.5 2.8-1.6 4.1C14.1 48.7 11 50 8 50c-1.6 0-3.1-0.4-4.4-1 -1.9-1-3.2-2.6-3.5-4.5 -0.3-1.9 0.4-3.8 1.8-5.3 1.9-2 4.4-3 7.4-3 0.5 0 1 0 1.5 0.1l0-5.9c0-7.6 0-15.4 0-23.1 0-0.8 0.2-1.8 1.7-2.1 6.7-1.2 13.5-2.4 20-3.6 1.9-0.4 4.2-0.8 6.1-1.1L38.7 2.2z"/><path fill="#FFF" d="M40 0L40 0l0 49.6h0 38.8V0H40zM43.5 3.5h31.8v7.1H43.5V3.5zM43.5 14.2h31.8v7.1H43.5V14.2zM43.5 24.8h31.8v7.1H43.5V24.8zM75.3 42.5H43.5v-7.1h31.8V42.5z"/><rect x="47.1" y="5.3" fill="#FFF" width="3.5" height="3.5"/><rect x="47.1" y="15.9" fill="#FFF" width="3.5" height="3.5"/><rect x="47.1" y="26.6" fill="#FFF" width="3.5" height="3.5"/><rect x="47.1" y="37.2" fill="#FFF" width="3.5" height="3.5"/></svg>