<svg xmlns="http://www.w3.org/2000/svg" version="1.1" width="66" height="50">
<path fill-rule="evenodd" clip-rule="evenodd" fill="white" d="M15.2 46.6c-1.1 1.1-2.3 2.3-3.4 3.4C-3 38.3-4.7 13.9 11.5 0c1.1 1.1 2.2 2.3 3.4 3.4C8.4 9.2 4.9 16.3 4.9 25.1 4.9 33.8 8.6 40.9 15.2 46.6zM54.3 50c-1.1-1.1-2.3-2.2-3.4-3.4 6.6-5.6 10.2-12.8 10.3-21.5 0.1-8.7-3.5-15.9-10.1-21.7 0.6-0.6 1.1-1.1 1.7-1.7C53.3 1.1 53.9 0.6 54.4 0 70.5 13.7 69.3 37.7 54.3 50zM42.6 11.9c1.1-1.1 2.3-2.3 3.4-3.4 10.8 8.3 10.8 24.8-0.2 33 -1.1-1.1-2.3-2.3-3.4-3.4 4.3-3.3 6.8-7.6 6.8-13C49.2 19.6 46.8 15.3 42.6 11.9zM23.7 38.1c-1.2 1.1-2.3 2.3-3.4 3.4C9.3 33.5 9.1 16.9 20 8.5c1.1 1.1 2.3 2.3 3.4 3.4 -4.3 3.3-6.7 7.7-6.6 13.2C16.9 30.6 19.4 34.9 23.7 38.1z"/>
<circle cx="33" cy="25" r="6" stroke-width="4" fill="white"/>
</svg>