<svg xmlns="http://www.w3.org/2000/svg" width="90" height="90">
<rect fill="#212121" width="90" height="90"/>
<path fill="#FFF" d="M35.5 65.5h0.6V24.4h-0.6V65.5z"/>
<path fill="#FFF" stroke="#FFF" stroke-width="3.6" stroke-linejoin="round" stroke-miterlimit="10" d="M35.5 65.5h0.6v-41.1h-0.6V65.5z"/>
<path fill="#FFF" d="M28.2 74.4c1.9-0.4 3.9-1.2 5.6-2.5 2-1.5 3.5-3.6 3.9-5.6 0.1-0.7 0.1-1.8-0.1-2.4 -0.5-1.7-1.8-2.8-3.9-3.3 -0.6-0.1-2-0.1-2.6-0.1 -2.1 0.3-4.2 1.1-6.1 2.5 -2.1 1.5-3.5 3.6-4 5.7 -0.1 0.7-0.1 1.8 0.1 2.3 0.5 1.8 1.9 2.9 4 3.4"/>
<path fill="#FFF" d="M66.5 58.2H67.1V17.1h-0.6V58.2z"/>
<path fill="#FFF" stroke="#FFF" stroke-width="3.6" stroke-linejoin="round" stroke-miterlimit="10" d="M66.5 58.3H67.1v-41.3l-0.6 0.3V58.3z"/>
<path fill="#FFF" d="M62.3 53.4c-2.1 0.3-4.2 1.1-6.1 2.5 -2.1 1.5-3.5 3.6-4 5.7 -0.1 0.7-0.1 1.8 0.1 2.3 0.5 1.8 1.9 2.9 4 3.4 0.6 0.1 2.1 0.1 2.9 0 1.9-0.4 3.9-1.2 5.6-2.5 2-1.5 3.5-3.6 3.9-5.6 0.1-0.7 0.1-1.8-0.1-2.4 -0.5-1.7-1.8-2.8-3.9-3.3C64.3 53.4 62.9 53.4 62.3 53.4z"/>
<path fill="#FFF" d="M66.6 15.3L35 22.7l0.4 4.6L67 20 66.6 15.3"/>
</svg>