<?xml version="1.0" encoding="utf-8"?>
<!-- Generator: Adobe Illustrator 18.0.0, SVG Export Plug-In . SVG Version: 6.00 Build 0)  -->
<!DOCTYPE svg PUBLIC "-//W3C//DTD SVG 1.1//EN" "http://www.w3.org/Graphics/SVG/1.1/DTD/svg11.dtd">
<svg version="1.1" id="Laag_1" xmlns="http://www.w3.org/2000/svg" xmlns:xlink="http://www.w3.org/1999/xlink" x="0px" y="0px"
	 width="63px" height="51px" viewBox="0 0 63 51" enable-background="new 0 0 63 51" xml:space="preserve">
<g>
	<g>
		<path fill="#FFFFFF" d="M51.2,0.5c6.2,0,11.2,5.4,11.2,12s-5,12-11.2,12H11.7c-6.2,0-11.2-5.4-11.2-12s5-12,11.2-12H51.2z"/>
		<path fill="#808080" d="M51.3,24H11.7C5.8,24,1,18.8,1,12.5S5.8,1,11.7,1h39.6C57.2,1,62,6.2,62,12.5S57.2,24,51.3,24 M51.3,25
			C57.7,25,63,19.5,63,12.5S57.7,0,51.2,0H11.7C5.3,0,0,5.5,0,12.5S5.3,25,11.7,25H51.3L51.3,25z"/>
	</g>
	<g>
		<path fill="#FFFFFF" d="M21.5,12.9c0,5-3.9,9-8.9,9s-9-4-9-9s4.1-9,9-9S21.5,7.9,21.5,12.9z"/>
		<path fill="#808080" d="M12.6,21.3c-4.7,0-8.4-3.8-8.4-8.5S8,4.3,12.6,4.3S21,8.1,21,12.8S17.3,21.3,12.6,21.3 M12.6,22.3
			c5.2,0,9.4-4.2,9.4-9.5s-4.2-9.5-9.4-9.5s-9.4,4.2-9.4,9.5S7.4,22.3,12.6,22.3L12.6,22.3z"/>
	</g>
</g>
<g>
	<g>
		<path fill="#39b54a" d="M51.2,26.5c6.2,0,11.2,5.4,11.2,12s-5,12-11.2,12H11.7c-6.2,0-11.2-5.4-11.2-12s5-12,11.2-12H51.2z"/>
		<path fill="#808080" d="M51.3,50H11.7C5.8,50,1,44.8,1,38.5S5.8,27,11.7,27h39.6C57.2,27,62,32.2,62,38.5S57.2,50,51.3,50
			 M51.3,51C57.7,51,63,45.5,63,38.5S57.7,26,51.2,26H11.7C5.3,26,0,31.5,0,38.5S5.3,51,11.7,51H51.3L51.3,51z"/>
	</g>
	<g>
		<path fill="#FFFFFF" d="M59.4,38.2c0,5-4.1,9-9,9s-8.9-4-8.9-9s4-9,8.9-9S59.4,33.2,59.4,38.2z"/>
		<path fill="#808080" d="M50.4,46.6c-4.7,0-8.4-3.9-8.4-8.5s3.7-8.5,8.4-8.5s8.5,3.8,8.5,8.5S55.1,46.6,50.4,46.6 M50.4,47.6
			c5.2,0,9.5-4.2,9.5-9.5s-4.2-9.5-9.5-9.5s-9.5,4.2-9.5,9.5C40.9,43.4,45.2,47.6,50.4,47.6L50.4,47.6z"/>
	</g>
</g>
</svg>
