<?xml version="1.0" encoding="utf-8"?>
<!-- Generator: Adobe Illustrator 18.0.0, SVG Export Plug-In . SVG Version: 6.00 Build 0)  -->
<!DOCTYPE svg PUBLIC "-//W3C//DTD SVG 1.1//EN" "http://www.w3.org/Graphics/SVG/1.1/DTD/svg11.dtd">
<svg version="1.1" id="Laag_1" xmlns="http://www.w3.org/2000/svg" xmlns:xlink="http://www.w3.org/1999/xlink" x="0px" y="0px"
	 width="64px" height="32px" viewBox="0 0 64 32" enable-background="new 0 0 64 32" xml:space="preserve">
<g>
	<g>
		<path fill="#FFFFFF" d="M16,0C7.2,0,0,7.2,0,16s7.2,16,16,16s16-7.2,16-16S24.8,0,16,0z M16,29.5c-7.5,0-13.5-6-13.5-13.5
			S8.5,2.5,16,2.5s13.5,6,13.5,13.5S23.5,29.5,16,29.5z"/>
	</g>
	<path fill="#FFFFFF" d="M11.2,21.7h9.5v1.8h-9.5V21.7z M14.9,8.5h2.2V16l2.9-3.5V16l-4,4.6L12,16v-3.5l2.9,3.5V8.5z"/>
</g>
<g>
	<g>
		<path fill="#999999" d="M48,0c-8.8,0-16,7.2-16,16s7.2,16,16,16s16-7.2,16-16S56.8,0,48,0z M48,29.5c-7.5,0-13.5-6-13.5-13.5
			S40.5,2.5,48,2.5c7.5,0,13.5,6,13.5,13.5S55.5,29.5,48,29.5z"/>
	</g>
	<path fill="#999999" d="M43.2,21.7h9.5v1.8h-9.5V21.7z M46.9,8.5h2.2V16l2.9-3.5V16l-4,4.6L44,16v-3.5l2.9,3.5V8.5z"/>
</g>
</svg>
