<?xml version="1.0" encoding="utf-8"?>
<!-- Generator: Adobe Illustrator 18.0.0, SVG Export Plug-In . SVG Version: 6.00 Build 0)  -->
<!DOCTYPE svg PUBLIC "-//W3C//DTD SVG 1.1//EN" "http://www.w3.org/Graphics/SVG/1.1/DTD/svg11.dtd">
<svg version="1.1" id="Laag_1" xmlns="http://www.w3.org/2000/svg" xmlns:xlink="http://www.w3.org/1999/xlink" x="0px" y="0px"
	 width="64px" height="32px" viewBox="0 0 64 32" enable-background="new 0 0 64 32" xml:space="preserve">
<g>
	<path fill="#FFFFFF" d="M21.6,14.1c1,0,1.9,0.8,1.9,1.9s-0.8,1.9-1.9,1.9c-1,0-1.9-0.8-1.9-1.9S20.6,14.1,21.6,14.1z M16,14.1
		c1,0,1.9,0.8,1.9,1.9S17,17.9,16,17.9c-1,0-1.9-0.8-1.9-1.9S15,14.1,16,14.1z M10.4,14.1c1,0,1.9,0.8,1.9,1.9s-0.8,1.9-1.9,1.9
		S8.5,17,8.5,16S9.3,14.1,10.4,14.1z"/>
	<path fill="#FFFFFF" d="M16,0C7.2,0,0,7.2,0,16s7.2,16,16,16c8.8,0,16-7.2,16-16S24.8,0,16,0z M16,29.5c-7.5,0-13.5-6-13.5-13.5
		S8.5,2.5,16,2.5c7.5,0,13.5,6,13.5,13.5S23.5,29.5,16,29.5z"/>
</g>
<g>
	<path fill="#999999" d="M53.6,14.1c1,0,1.9,0.8,1.9,1.9s-0.8,1.9-1.9,1.9c-1,0-1.9-0.8-1.9-1.9S52.6,14.1,53.6,14.1z M48,14.1
		c1,0,1.9,0.8,1.9,1.9S49,17.9,48,17.9S46.1,17,46.1,16S47,14.1,48,14.1z M42.4,14.1c1,0,1.9,0.8,1.9,1.9s-0.8,1.9-1.9,1.9
		S40.5,17,40.5,16S41.3,14.1,42.4,14.1z"/>
	<path fill="#999999" d="M48,0c-8.8,0-16,7.2-16,16s7.2,16,16,16c8.8,0,16-7.2,16-16S56.8,0,48,0z M48,29.5c-7.5,0-13.5-6-13.5-13.5
		S40.5,2.5,48,2.5c7.5,0,13.5,6,13.5,13.5S55.5,29.5,48,29.5z"/>
</g>
</svg>
