<?xml version="1.0" encoding="utf-8"?>
<!-- Generator: Adobe Illustrator 18.0.0, SVG Export Plug-In . SVG Version: 6.00 Build 0)  -->
<!DOCTYPE svg PUBLIC "-//W3C//DTD SVG 1.1//EN" "http://www.w3.org/Graphics/SVG/1.1/DTD/svg11.dtd">
<svg version="1.1" id="Laag_1" xmlns="http://www.w3.org/2000/svg" xmlns:xlink="http://www.w3.org/1999/xlink" x="0px" y="0px"
	 width="64px" height="64px" viewBox="0 0 64 64" enable-background="new 0 0 64 64" xml:space="preserve">
<g>
	<path fill="#FFFFFF" d="M16,0C7.2,0,0,7.2,0,16s7.2,16,16,16c8.8,0,16-7.2,16-16S24.8,0,16,0z M16,29.5c-7.5,0-13.5-6-13.5-13.5
		S8.5,2.5,16,2.5c7.5,0,13.5,6,13.5,13.5S23.5,29.5,16,29.5z"/>
	<g>
		<polygon fill="#FFFFFF" points="13.8,11.7 13.8,15.4 9.6,15.4 9.6,11.7 8.5,11.7 8.5,20.3 9.6,20.3 9.6,16.5 13.8,16.5 13.8,20.3 
			15,20.3 15,11.7 		"/>
		<path fill="#FFFFFF" d="M21.4,18.8c0.4-0.3,0.7-0.7,1-1.2c0.3-0.6,0.4-1.3,0.4-2.1c0-0.6-0.1-1.1-0.2-1.5
			c-0.2-0.5-0.4-0.9-0.7-1.2c-0.3-0.3-0.6-0.6-1-0.8c-0.4-0.2-0.9-0.3-1.3-0.3c-0.5,0-1,0.1-1.4,0.3c-0.4,0.2-0.8,0.5-1.1,0.8
			c-0.3,0.3-0.5,0.8-0.7,1.3c-0.2,0.5-0.2,1-0.2,1.6c0,0.6,0.1,1.1,0.2,1.5c0.2,0.5,0.4,0.9,0.7,1.2c0.3,0.3,0.7,0.6,1.1,0.8
			c0.4,0.2,0.9,0.3,1.4,0.3c0.2,0,0.4,0,0.6,0c0.2,0,0.3-0.1,0.5-0.1l1.4,1h1.7L21.4,18.8z M19.4,12.6c0.4,0,0.7,0.1,1,0.2
			c0.3,0.1,0.5,0.3,0.7,0.6c0.2,0.3,0.4,0.6,0.5,0.9c0.1,0.4,0.2,0.8,0.2,1.3c0,0.5-0.1,0.9-0.2,1.3c-0.1,0.4-0.3,0.7-0.5,0.9
			c-0.2,0.2-0.5,0.4-0.8,0.6c-0.6,0.3-1.4,0.3-2,0c-0.3-0.1-0.5-0.3-0.7-0.6c-0.2-0.3-0.4-0.6-0.5-0.9c-0.1-0.4-0.2-0.8-0.2-1.2
			c0-0.4,0.1-0.9,0.2-1.2c0.1-0.4,0.3-0.7,0.5-0.9c0.2-0.3,0.5-0.5,0.8-0.6C18.7,12.7,19,12.6,19.4,12.6z"/>
	</g>
</g>
<g>
	<g>
		<path fill="#FFFFFF" d="M21.4,50.8c0.4-0.3,0.7-0.7,1-1.2c0.3-0.6,0.4-1.3,0.4-2.1c0-0.6-0.1-1.1-0.2-1.5
			c-0.2-0.5-0.4-0.9-0.7-1.2c-0.3-0.3-0.6-0.6-1-0.8c-0.4-0.2-0.9-0.3-1.3-0.3c-0.5,0-1,0.1-1.4,0.3c-0.4,0.2-0.8,0.5-1.1,0.8
			c-0.3,0.3-0.5,0.8-0.7,1.3c-0.2,0.5-0.2,1-0.2,1.6c0,0.6,0.1,1.1,0.2,1.5c0.2,0.5,0.4,0.9,0.7,1.2c0.3,0.3,0.7,0.6,1.1,0.8
			c0.4,0.2,0.9,0.3,1.4,0.3c0.2,0,0.4,0,0.6,0c0.2,0,0.3-0.1,0.5-0.1l1.4,1h1.7L21.4,50.8z M19.4,44.6c0.4,0,0.7,0.1,1,0.2
			c0.3,0.1,0.5,0.3,0.7,0.6c0.2,0.3,0.4,0.6,0.5,0.9c0.1,0.4,0.2,0.8,0.2,1.3c0,0.5-0.1,0.9-0.2,1.3c-0.1,0.4-0.3,0.7-0.5,0.9
			c-0.2,0.2-0.5,0.4-0.8,0.6c-0.6,0.3-1.4,0.3-2,0c-0.3-0.1-0.5-0.3-0.7-0.6c-0.2-0.3-0.4-0.6-0.5-0.9c-0.1-0.4-0.2-0.8-0.2-1.2
			c0-0.4,0.1-0.9,0.2-1.2c0.1-0.4,0.3-0.7,0.5-0.9c0.2-0.3,0.5-0.5,0.8-0.6C18.7,44.7,19,44.6,19.4,44.6z"/>
		<polygon fill="#FFFFFF" points="9.6,51.3 9.6,43.7 8.5,43.7 8.5,52.3 12.8,52.3 12.8,51.3 		"/>
	</g>
	<path fill="#FFFFFF" d="M16,32C7.2,32,0,39.2,0,48s7.2,16,16,16c8.8,0,16-7.2,16-16S24.8,32,16,32z M16,61.5
		c-7.5,0-13.5-6-13.5-13.5s6-13.5,13.5-13.5c7.5,0,13.5,6,13.5,13.5S23.5,61.5,16,61.5z"/>
</g>
<g>
	<path fill="#999999" d="M48,0c-8.8,0-16,7.2-16,16s7.2,16,16,16c8.8,0,16-7.2,16-16S56.8,0,48,0z M48,29.5c-7.5,0-13.5-6-13.5-13.5
		S40.5,2.5,48,2.5c7.5,0,13.5,6,13.5,13.5S55.5,29.5,48,29.5z"/>
	<g>
		<polygon fill="#999999" points="45.8,11.7 45.8,15.4 41.6,15.4 41.6,11.7 40.5,11.7 40.5,20.3 41.6,20.3 41.6,16.5 45.8,16.5 
			45.8,20.3 47,20.3 47,11.7 		"/>
		<path fill="#999999" d="M53.4,18.8c0.4-0.3,0.7-0.7,1-1.2c0.3-0.6,0.4-1.3,0.4-2.1c0-0.6-0.1-1.1-0.2-1.5
			c-0.2-0.5-0.4-0.9-0.7-1.2c-0.3-0.3-0.6-0.6-1-0.8c-0.4-0.2-0.9-0.3-1.3-0.3c-0.5,0-1,0.1-1.4,0.3c-0.4,0.2-0.8,0.5-1.1,0.8
			c-0.3,0.3-0.5,0.8-0.7,1.3c-0.2,0.5-0.2,1-0.2,1.6c0,0.6,0.1,1.1,0.2,1.5c0.2,0.5,0.4,0.9,0.7,1.2c0.3,0.3,0.7,0.6,1.1,0.8
			c0.4,0.2,0.9,0.3,1.4,0.3c0.2,0,0.4,0,0.6,0c0.2,0,0.3-0.1,0.5-0.1l1.4,1h1.7L53.4,18.8z M51.4,12.6c0.4,0,0.7,0.1,1,0.2
			c0.3,0.1,0.5,0.3,0.7,0.6c0.2,0.3,0.4,0.6,0.5,0.9c0.1,0.4,0.2,0.8,0.2,1.3c0,0.5-0.1,0.9-0.2,1.3c-0.1,0.4-0.3,0.7-0.5,0.9
			c-0.2,0.2-0.5,0.4-0.8,0.6c-0.6,0.3-1.4,0.3-2,0c-0.3-0.1-0.5-0.3-0.7-0.6c-0.2-0.3-0.4-0.6-0.5-0.9c-0.1-0.4-0.2-0.8-0.2-1.2
			c0-0.4,0.1-0.9,0.2-1.2c0.1-0.4,0.3-0.7,0.5-0.9c0.2-0.3,0.5-0.5,0.8-0.6C50.7,12.7,51,12.6,51.4,12.6z"/>
	</g>
</g>
<g>
	<g>
		<path fill="#999999" d="M53.4,50.8c0.4-0.3,0.7-0.7,1-1.2c0.3-0.6,0.4-1.3,0.4-2.1c0-0.6-0.1-1.1-0.2-1.5
			c-0.2-0.5-0.4-0.9-0.7-1.2c-0.3-0.3-0.6-0.6-1-0.8c-0.4-0.2-0.9-0.3-1.3-0.3c-0.5,0-1,0.1-1.4,0.3c-0.4,0.2-0.8,0.5-1.1,0.8
			c-0.3,0.3-0.5,0.8-0.7,1.3c-0.2,0.5-0.2,1-0.2,1.6c0,0.6,0.1,1.1,0.2,1.5c0.2,0.5,0.4,0.9,0.7,1.2c0.3,0.3,0.7,0.6,1.1,0.8
			c0.4,0.2,0.9,0.3,1.4,0.3c0.2,0,0.4,0,0.6,0c0.2,0,0.3-0.1,0.5-0.1l1.4,1h1.7L53.4,50.8z M51.4,44.6c0.4,0,0.7,0.1,1,0.2
			c0.3,0.1,0.5,0.3,0.7,0.6c0.2,0.3,0.4,0.6,0.5,0.9c0.1,0.4,0.2,0.8,0.2,1.3c0,0.5-0.1,0.9-0.2,1.3c-0.1,0.4-0.3,0.7-0.5,0.9
			c-0.2,0.2-0.5,0.4-0.8,0.6c-0.6,0.3-1.4,0.3-2,0c-0.3-0.1-0.5-0.3-0.7-0.6c-0.2-0.3-0.4-0.6-0.5-0.9c-0.1-0.4-0.2-0.8-0.2-1.2
			c0-0.4,0.1-0.9,0.2-1.2c0.1-0.4,0.3-0.7,0.5-0.9c0.2-0.3,0.5-0.5,0.8-0.6C50.7,44.7,51,44.6,51.4,44.6z"/>
		<polygon fill="#999999" points="41.6,51.3 41.6,43.7 40.5,43.7 40.5,52.3 44.8,52.3 44.8,51.3 		"/>
	</g>
	<path fill="#999999" d="M48,32c-8.8,0-16,7.2-16,16s7.2,16,16,16c8.8,0,16-7.2,16-16S56.8,32,48,32z M48,61.5
		c-7.5,0-13.5-6-13.5-13.5s6-13.5,13.5-13.5c7.5,0,13.5,6,13.5,13.5S55.5,61.5,48,61.5z"/>
</g>
</svg>
