<?xml version="1.0" encoding="utf-8"?>
<!-- Generator: Adobe Illustrator 18.0.0, SVG Export Plug-In . SVG Version: 6.00 Build 0)  -->
<!DOCTYPE svg PUBLIC "-//W3C//DTD SVG 1.1//EN" "http://www.w3.org/Graphics/SVG/1.1/DTD/svg11.dtd">
<svg version="1.1" id="Laag_1" xmlns="http://www.w3.org/2000/svg" xmlns:xlink="http://www.w3.org/1999/xlink" x="0px" y="0px"
	 width="64px" height="32px" viewBox="0 0 64 32" enable-background="new 0 0 64 32" xml:space="preserve">
<g>
	<path fill="#FFFFFF" d="M16,0C7.2,0,0,7.2,0,16s7.2,16,16,16s16-7.2,16-16S24.8,0,16,0z M16,29.5c-7.5,0-13.5-6-13.5-13.5
		S8.5,2.5,16,2.5s13.5,6,13.5,13.5S23.5,29.5,16,29.5z"/>
	<g>
		<path fill="#FFFFFF" d="M16.3,17.2l1.1-1.1l-1.4-1.4l-1.1,1.1c-0.2-0.1-0.4-0.2-0.5-0.2v-1.5h-2v1.5c-0.2,0.1-0.4,0.1-0.5,0.2
			l-1.1-1.1l-1.4,1.4l1.1,1.1c-0.1,0.2-0.2,0.4-0.2,0.5H8.5v2H10c0.1,0.2,0.1,0.4,0.2,0.5l-1.1,1.1l1.4,1.4l1.1-1.1
			c0.2,0.1,0.4,0.2,0.5,0.2v1.5h2V22c0.2-0.1,0.4-0.1,0.5-0.2l1.1,1.1l1.4-1.4l-1.1-1.1c0.1-0.2,0.2-0.4,0.2-0.5h1.5v-2h-1.5
			C16.5,17.5,16.4,17.3,16.3,17.2z M13.3,20.8c-1.1,0-2-0.9-2-2c0-1.1,0.9-2,2-2c1.1,0,2,0.9,2,2C15.3,19.9,14.4,20.8,13.3,20.8z"/>
		<path fill="#FFFFFF" d="M23.5,12.6v-1.4h-1.1c0-0.1-0.1-0.3-0.2-0.4L23,10l-1-1l-0.8,0.8c-0.1-0.1-0.2-0.1-0.4-0.2V8.5h-1.4v1.1
			c-0.1,0-0.3,0.1-0.4,0.2L18.3,9l-1,1l0.8,0.8c-0.1,0.1-0.1,0.2-0.2,0.4h-1.1v1.4h1.1c0,0.1,0.1,0.3,0.2,0.4l-0.8,0.8l1,1l0.8-0.8
			c0.1,0.1,0.2,0.1,0.4,0.2v1.1h1.4v-1.1c0.1,0,0.3-0.1,0.4-0.2l0.8,0.8l1-1l-0.8-0.8c0.1-0.1,0.1-0.2,0.2-0.4H23.5z M20.2,13.3
			c-0.8,0-1.4-0.6-1.4-1.4c0-0.8,0.6-1.4,1.4-1.4c0.8,0,1.4,0.6,1.4,1.4C21.6,12.6,20.9,13.3,20.2,13.3z"/>
	</g>
</g>
<g>
	<path fill="#999999" d="M48,0c-8.8,0-16,7.2-16,16s7.2,16,16,16s16-7.2,16-16S56.8,0,48,0z M48,29.5c-7.5,0-13.5-6-13.5-13.5
		S40.5,2.5,48,2.5c7.5,0,13.5,6,13.5,13.5S55.5,29.5,48,29.5z"/>
	<g>
		<path fill="#999999" d="M48.3,17.2l1.1-1.1l-1.4-1.4l-1.1,1.1c-0.2-0.1-0.4-0.2-0.5-0.2v-1.5h-2v1.5c-0.2,0.1-0.4,0.1-0.5,0.2
			l-1.1-1.1l-1.4,1.4l1.1,1.1c-0.1,0.2-0.2,0.4-0.2,0.5h-1.5v2H42c0.1,0.2,0.1,0.4,0.2,0.5l-1.1,1.1l1.4,1.4l1.1-1.1
			c0.2,0.1,0.4,0.2,0.5,0.2v1.5h2V22c0.2-0.1,0.4-0.1,0.5-0.2l1.1,1.1l1.4-1.4l-1.1-1.1c0.1-0.2,0.2-0.4,0.2-0.5h1.5v-2h-1.5
			C48.5,17.5,48.4,17.3,48.3,17.2z M45.3,20.8c-1.1,0-2-0.9-2-2c0-1.1,0.9-2,2-2c1.1,0,2,0.9,2,2C47.3,19.9,46.4,20.8,45.3,20.8z"/>
		<path fill="#999999" d="M55.5,12.6v-1.4h-1.1c0-0.1-0.1-0.3-0.2-0.4L55,10l-1-1l-0.8,0.8c-0.1-0.1-0.2-0.1-0.4-0.2V8.5h-1.4v1.1
			c-0.1,0-0.3,0.1-0.4,0.2L50.3,9l-1,1l0.8,0.8c-0.1,0.1-0.1,0.2-0.2,0.4h-1.1v1.4h1.1c0,0.1,0.1,0.3,0.2,0.4l-0.8,0.8l1,1l0.8-0.8
			c0.1,0.1,0.2,0.1,0.4,0.2v1.1h1.4v-1.1c0.1,0,0.3-0.1,0.4-0.2l0.8,0.8l1-1l-0.8-0.8c0.1-0.1,0.1-0.2,0.2-0.4H55.5z M52.2,13.3
			c-0.8,0-1.4-0.6-1.4-1.4c0-0.8,0.6-1.4,1.4-1.4c0.8,0,1.4,0.6,1.4,1.4C53.6,12.6,52.9,13.3,52.2,13.3z"/>
	</g>
</g>
</svg>
