<?xml version="1.0" encoding="utf-8"?>
<!-- Generator: Adobe Illustrator 16.0.0, SVG Export Plug-In . SVG Version: 6.00 Build 0)  -->
<!DOCTYPE svg PUBLIC "-//W3C//DTD SVG 1.1//EN" "http://www.w3.org/Graphics/SVG/1.1/DTD/svg11.dtd">
<svg version="1.1" id="Layer_1" xmlns="http://www.w3.org/2000/svg" xmlns:xlink="http://www.w3.org/1999/xlink" x="0px" y="0px"
	 width="91px" height="261px" viewBox="195.402 0 91 261" enable-background="new 195.402 0 91 261" xml:space="preserve">
<g>
	<g>
		<path fill="#215CAC" d="M217.902,0c-12.398,0-22.5,10.102-22.5,22.5s10.102,22.5,22.5,22.5s22.5-10.102,22.5-22.5
			S230.3,0,217.902,0z M217.902,41.502c-10.501,0-19.002-8.501-19.002-19.002s8.501-19.002,19.002-19.002
			c10.5,0,19.002,8.501,19.002,19.002S228.403,41.502,217.902,41.502z"/>
		<polygon fill="#215CAC" points="212.302,29.502 226.3,22.5 212.302,15.498 		"/>
	</g>
</g>
<g>
	<g>
		<path fill="#808080" d="M263.903,0c-12.398,0-22.501,10.102-22.501,22.5S251.505,45,263.903,45
			c12.397,0,22.499-10.102,22.499-22.5S276.301,0,263.903,0z M263.903,41.502c-10.501,0-18.996-8.501-18.996-19.002
			s8.495-19.002,18.996-19.002c10.5,0,18.995,8.501,18.995,19.002S274.403,41.502,263.903,41.502z"/>
		<polygon fill="#808080" points="258.308,29.502 272.301,22.5 258.308,15.498 		"/>
	</g>
</g>
<g>
	<path fill="#808080" d="M263.903,46c-12.398,0-22.501,10.102-22.501,22.5S251.505,91,263.903,91
		c12.397,0,22.499-10.102,22.499-22.5S276.301,46,263.903,46z M263.903,87.501c-10.501,0-18.996-8.5-18.996-19.001
		c0-10.5,8.495-19.001,18.996-19.001c10.5,0,18.995,8.501,18.995,19.001C282.898,79.001,274.403,87.501,263.903,87.501z"/>
	<polygon fill="#808080" points="265.305,75.502 270.899,75.502 270.899,65.298 270.899,61.498 265.305,61.498 	"/>
	<rect x="256.906" y="61.498" fill="#808080" width="5.595" height="14.102"/>
</g>
<g>
	<path fill="#215CAC" d="M217.902,46c-12.398,0-22.5,10.102-22.5,22.5s10.102,22.5,22.5,22.5s22.5-10.102,22.5-22.5
		S230.3,46,217.902,46z M217.902,87.501c-10.501,0-19.002-8.5-19.002-19.001c0-10.5,8.501-19.001,19.002-19.001
		c10.5,0,19.002,8.501,19.002,19.001C236.904,79.001,228.403,87.501,217.902,87.501z"/>
	<polygon fill="#215CAC" points="219.304,75.502 224.905,75.502 224.905,65.298 224.905,61.498 219.304,61.498 	"/>
	<rect x="210.9" y="61.498" fill="#215CAC" width="5.601" height="14.102"/>
</g>
<g>
	<g>
		<path fill="#215CAC" d="M211.91,126c-9.098,0-16.508,7.39-16.508,16.481c0,9.109,7.41,16.519,16.508,16.519
			c9.097,0,16.492-7.409,16.492-16.519C228.402,133.39,221.007,126,211.91,126z M211.91,156.416c-7.707,0-13.906-6.22-13.906-13.935
			c0-7.677,6.2-13.894,13.906-13.894c7.689,0,13.906,6.217,13.906,13.894C225.816,150.196,219.599,156.416,211.91,156.416z"/>
		<polygon fill="#215CAC" points="206.708,147.71 212.902,142.481 206.708,137.308 		"/>
		<polygon fill="#215CAC" points="212.902,141.495 212.902,147.71 215.011,147.71 215.011,137.308 212.902,137.308 		"/>
	</g>
</g>
<g>
	<g>
		<path fill="#215CAC" d="M211.91,92c-9.098,0-16.508,7.41-16.508,16.509c0,9.096,7.41,16.491,16.508,16.491
			c9.097,0,16.492-7.395,16.492-16.491C228.402,99.41,221.007,92,211.91,92z M211.91,122.413c-7.707,0-13.906-6.217-13.906-13.904
			c0-7.708,6.2-13.909,13.906-13.909c7.689,0,13.906,6.201,13.906,13.909C225.816,116.196,219.599,122.413,211.91,122.413z"/>
		<polygon fill="#215CAC" points="215.011,113.709 215.011,103.304 208.802,108.509 		"/>
		<polygon fill="#215CAC" points="206.708,103.304 206.708,113.709 208.802,113.709 208.802,107.494 208.802,103.304 		"/>
	</g>
</g>
<g>
	<g>
		<path fill="#808080" d="M245.894,92c-9.096,0-16.491,7.41-16.491,16.509c0,9.096,7.395,16.491,16.491,16.491
			c9.098,0,16.508-7.395,16.508-16.491C262.401,99.41,254.992,92,245.894,92z M245.894,122.413c-7.689,0-13.906-6.217-13.906-13.904
			c0-7.708,6.217-13.909,13.906-13.909c7.706,0,13.924,6.201,13.924,13.909C259.817,116.196,253.599,122.413,245.894,122.413z"/>
		<polygon fill="#808080" points="249.003,113.709 249.003,103.304 242.802,108.509 		"/>
		<polygon fill="#808080" points="240.691,103.304 240.691,113.709 242.802,113.709 242.802,107.494 242.802,103.304 		"/>
	</g>
</g>
<g>
	<g>
		<path fill="#808080" d="M245.894,126c-9.096,0-16.491,7.39-16.491,16.481c0,9.109,7.395,16.519,16.491,16.519
			c9.098,0,16.508-7.409,16.508-16.519C262.401,133.39,254.992,126,245.894,126z M245.894,156.416
			c-7.689,0-13.906-6.22-13.906-13.935c0-7.677,6.217-13.894,13.906-13.894c7.706,0,13.924,6.217,13.924,13.894
			C259.817,150.196,253.599,156.416,245.894,156.416z"/>
		<polygon fill="#808080" points="240.691,147.71 246.907,142.481 240.691,137.308 		"/>
		<polygon fill="#808080" points="246.907,141.495 246.907,147.71 249.003,147.71 249.003,137.308 246.907,137.308 		"/>
	</g>
</g>
<path fill="#215CAC" d="M211.902,160c-9.1,0-16.5,7.399-16.5,16.5c0,9.1,7.4,16.499,16.5,16.499s16.5-7.399,16.5-16.499
	C228.402,167.399,221.002,160,211.902,160z M211.902,190.399c-7.7,0-13.9-6.2-13.9-13.899c0-7.7,6.2-13.9,13.9-13.9
	s13.9,6.2,13.9,13.9C225.802,184.199,219.603,190.399,211.902,190.399z"/>
<polygon fill="#215CAC" points="217.102,174.399 217.102,175.5 220.202,173.399 217.102,171.3 217.102,172.399 212.902,172.399 
	208.802,178.6 203.702,178.6 203.702,180.6 209.802,180.6 214.002,174.399 "/>
<polygon fill="#215CAC" points="209.602,175.5 210.802,173.8 209.802,172.399 203.702,172.399 203.702,174.399 208.802,174.399 "/>
<polygon fill="#215CAC" points="217.102,178.6 214.002,178.6 213.202,177.5 212.002,179.199 212.902,180.6 217.102,180.6 
	217.102,181.699 220.202,179.6 217.102,177.5 "/>
<path fill="#999999" d="M245.902,160c-9.1,0-16.5,7.399-16.5,16.5c0,9.1,7.4,16.499,16.5,16.499s16.5-7.399,16.5-16.499
	C262.402,167.399,255.002,160,245.902,160z M245.902,190.399c-7.7,0-13.9-6.2-13.9-13.899c0-7.7,6.2-13.9,13.9-13.9
	c7.7,0,13.899,6.2,13.899,13.9C259.802,184.199,253.602,190.399,245.902,190.399z"/>
<polygon fill="#999999" points="251.102,174.399 251.102,175.5 254.202,173.399 251.102,171.3 251.102,172.399 246.902,172.399 
	242.802,178.6 237.702,178.6 237.702,180.6 243.802,180.6 248.002,174.399 "/>
<polygon fill="#999999" points="243.602,175.5 244.802,173.8 243.802,172.399 237.702,172.399 237.702,174.399 242.802,174.399 "/>
<polygon fill="#999999" points="251.102,178.6 248.002,178.6 247.202,177.5 246.002,179.199 246.902,180.6 251.102,180.6 
	251.102,181.699 254.202,179.6 251.102,177.5 "/>
<path fill="#215CAC" d="M204.902,208.301h2.5l3.8-3.101v10.7l-3.8-3.8h-2.5c-0.7,0-1.3-0.6-1.3-1.3v-1.3
	C203.702,208.9,204.302,208.301,204.902,208.301z M213.002,212.801l2.3-2.3l-2.3-2.301l1.4-1.399l2.3,2.3l2.3-2.3l1.4,1.399
	l-2.3,2.301l2.3,2.3l-1.4,1.399l-2.3-2.3l-2.3,2.3L213.002,212.801z M211.902,194c-9.1,0-16.5,7.4-16.5,16.501
	c0,9.1,7.4,16.499,16.5,16.499s16.5-7.399,16.5-16.499C228.402,201.4,221.002,194,211.902,194z M211.902,224.4
	c-7.7,0-13.9-6.2-13.9-13.899c0-7.7,6.2-13.9,13.9-13.9s13.9,6.2,13.9,13.9C225.802,218.2,219.603,224.4,211.902,224.4z"/>
<path fill="#215CAC" d="M220.502,244.601c0,2.1-0.899,3.9-2.3,5.3l-1-1c1.101-1.1,1.9-2.699,1.9-4.3c0-1.6-0.7-3.3-1.9-4.4l0.8-1.1
	C219.502,240.501,220.502,242.4,220.502,244.601z M217.803,244.601c0,1.5-0.7,2.8-1.8,3.7l-1-1c0.8-0.601,1.399-1.601,1.399-2.7
	s-0.6-2.1-1.399-2.7l1-1C217.103,241.801,217.803,243.101,217.803,244.601z M215.003,244.601c0,0.9-0.601,1.7-1.4,1.9l-0.6-1.301
	c0.399,0,0.699-0.3,0.699-0.699c0-0.4-0.3-0.7-0.699-0.7l0.6-1.3C214.402,242.9,215.003,243.7,215.003,244.601z"/>
<path fill="#215CAC" d="M204.902,242.301h2.5l3.8-3.101v10.7l-3.8-3.8h-2.5c-0.7,0-1.3-0.6-1.3-1.3v-1.3
	C203.702,242.9,204.303,242.301,204.902,242.301z"/>
<path fill="#215CAC" d="M211.902,228c-9.1,0-16.5,7.4-16.5,16.501c0,9.1,7.4,16.499,16.5,16.499s16.5-7.399,16.5-16.499
	C228.402,235.4,221.002,228,211.902,228z M211.902,258.4c-7.7,0-13.899-6.199-13.899-13.899s6.199-13.9,13.899-13.9
	s13.899,6.2,13.899,13.9S219.603,258.4,211.902,258.4z"/>
<path fill="#999999" d="M238.902,208.301h2.5l3.8-3.101v10.7l-3.8-3.8h-2.5c-0.7,0-1.3-0.6-1.3-1.3v-1.3
	C237.702,208.9,238.302,208.301,238.902,208.301z M247.002,212.801l2.3-2.3l-2.3-2.301l1.4-1.399l2.3,2.3l2.3-2.3l1.399,1.399
	l-2.3,2.301l2.3,2.3l-1.399,1.399l-2.3-2.3l-2.3,2.3L247.002,212.801z M245.902,194c-9.1,0-16.5,7.4-16.5,16.501
	c0,9.1,7.4,16.499,16.5,16.499s16.5-7.399,16.5-16.499C262.402,201.4,255.002,194,245.902,194z M245.902,224.4
	c-7.7,0-13.9-6.2-13.9-13.899c0-7.7,6.2-13.9,13.9-13.9c7.7,0,13.899,6.2,13.899,13.9C259.802,218.2,253.602,224.4,245.902,224.4z"
	/>
<path fill="#999999" d="M254.496,244.604c0,2.104-0.897,3.901-2.294,5.292l-0.999-0.997c1.096-1.096,1.901-2.707,1.901-4.295
	c0-1.604-0.709-3.311-1.901-4.406l0.806-1.096C253.495,240.496,254.496,242.394,254.496,244.604z M251.805,244.604
	c0,1.489-0.698,2.795-1.794,3.692l-1.001-1.001c0.793-0.588,1.388-1.589,1.388-2.691c0-1.104-0.595-2.106-1.388-2.7l1.001-0.997
	C251.106,241.809,251.805,243.099,251.805,244.604z M249.01,244.604c0,0.897-0.61,1.69-1.416,1.898l-0.586-1.312
	c0.393,0,0.688-0.288,0.688-0.69c0-0.405-0.295-0.693-0.688-0.693l0.586-1.31C248.399,242.905,249.01,243.707,249.01,244.604z"/>
<path fill="#999999" d="M238.896,242.291h2.511l3.803-3.094v10.699l-3.803-3.803h-2.511c-0.691,0-1.292-0.592-1.292-1.289V243.5
	C237.7,242.905,238.308,242.291,238.896,242.291z"/>
<path fill="#999999" d="M245.901,228c-9.098,0-16.5,7.395-16.5,16.501c0,9.104,7.402,16.499,16.5,16.499
	c9.104,0,16.5-7.396,16.5-16.499C262.401,235.395,255.006,228,245.901,228z M245.901,258.404c-7.697,0-13.897-6.206-13.897-13.903
	s6.2-13.906,13.897-13.906s13.906,6.209,13.906,13.906S253.599,258.404,245.901,258.404z"/>
</svg>
