<svg xmlns="http://www.w3.org/2000/svg" version="1.1" x="0" y="0" width="90" height="90" viewBox="0" enable-background="new 0 0 90 90" xml:space="preserve"><rect fill="#212121" width="90" height="90"/><path fill="#FFF" d="M61.494 57.406V17.484l-33.147 7.054 0.007 0.005h-0.035v35.088c-0.594-0.077-1.767-0.116-2.293-0.07 -1.968 0.236-3.982 1.029-5.713 2.351 -1.969 1.413-3.313 3.295-3.745 5.226 -0.096 0.617-0.096 1.696 0.047 2.171 0.43 1.647 1.778 2.682 3.791 3.107 0.574 0.091 2.022 0.091 2.739 0 1.824-0.337 3.698-1.135 5.324-2.309 1.92-1.411 3.332-3.572 3.767-5.506 0-0.004 0-0.009 0.001-0.013 0.027-0.116 0.043-0.236 0.043-0.36v-36.32l25.253-5.696v30.944c-0.6-0.077-1.759-0.113-2.282-0.069 -1.969 0.239-3.978 1.033-5.714 2.352 -1.966 1.413-3.311 3.296-3.747 5.226 -0.094 0.618-0.094 1.698 0.05 2.173 0.431 1.646 1.779 2.681 3.794 3.107 0.572 0.09 2.023 0.09 2.738 0 1.821-0.335 3.697-1.138 5.324-2.312 1.918-1.407 3.331-3.336 3.764-5.268C61.5 58.1 61.507 57.752 61.494 57.406z"/></svg>