<?xml version="1.0" encoding="utf-8"?>
<!-- Generator: Adobe Illustrator 17.1.0, SVG Export Plug-In . SVG Version: 6.00 Build 0)  -->
<!DOCTYPE svg PUBLIC "-//W3C//DTD SVG 1.1//EN" "http://www.w3.org/Graphics/SVG/1.1/DTD/svg11.dtd">
<svg version="1.1" id="Layer_1" xmlns="http://www.w3.org/2000/svg" xmlns:xlink="http://www.w3.org/1999/xlink" x="0px" y="0px"
	 width="110px" height="233px" viewBox="0 0 110 233" enable-background="new 0 0 110 233" xml:space="preserve">
<g>
	<g>
		<path fill="#999999" d="M82.5,0C67.3,0,55,12.3,55,27.5S67.3,55,82.5,55S110,42.7,110,27.5S97.7,0,82.5,0z M82.5,50.7
			c-12.8,0-23.2-10.4-23.2-23.2S69.7,4.3,82.5,4.3s23.2,10.4,23.2,23.2S95.3,50.7,82.5,50.7z"/>
		<polygon fill="#999999" points="75.6,36.1 92.8,27.5 75.6,18.9 		"/>
	</g>
</g>
<g>
	<path fill="#999999" d="M82.5,55C67.3,55,55,67.3,55,82.5S67.3,110,82.5,110S110,97.7,110,82.5S97.7,55,82.5,55z M82.5,105.7
		c-12.8,0-23.2-10.4-23.2-23.2s10.4-23.2,23.2-23.2s23.2,10.4,23.2,23.2S95.3,105.7,82.5,105.7z"/>
	<polygon fill="#999999" points="84.2,91.1 91.1,91.1 91.1,78.6 91.1,73.9 84.2,73.9 	"/>
	<rect x="73.9" y="73.9" fill="#999999" width="6.9" height="17.2"/>
</g>
<g>
	<g>
		<path fill="#215CAC" d="M27.5,0C12.3,0,0,12.3,0,27.5S12.3,55,27.5,55S55,42.7,55,27.5S42.7,0,27.5,0z M27.5,50.7
			c-12.8,0-23.2-10.4-23.2-23.2S14.7,4.3,27.5,4.3s23.2,10.4,23.2,23.2S40.3,50.7,27.5,50.7z"/>
		<polygon fill="#215CAC" points="20.6,36.1 37.8,27.5 20.6,18.9 		"/>
	</g>
</g>
<g>
	<path fill="#215CAC" d="M27.5,55C12.3,55,0,67.3,0,82.5S12.3,110,27.5,110S55,97.7,55,82.5S42.7,55,27.5,55z M27.5,105.7
		c-12.8,0-23.2-10.4-23.2-23.2s10.4-23.2,23.2-23.2s23.2,10.4,23.2,23.2S40.3,105.7,27.5,105.7z"/>
	<polygon fill="#215CAC" points="29.2,91.1 36.1,91.1 36.1,78.6 36.1,73.9 29.2,73.9 	"/>
	<rect x="18.9" y="73.9" fill="#215CAC" width="6.9" height="17.2"/>
</g>
<g>
	<g>
		<path fill="#215CAC" d="M20.5,151C9.2,151,0,160.2,0,171.5S9.2,192,20.5,192c11.3,0,20.5-9.2,20.5-20.5S31.8,151,20.5,151z
			 M20.5,188.8c-9.6,0-17.3-7.7-17.3-17.3s7.7-17.3,17.3-17.3c9.6,0,17.3,7.7,17.3,17.3S30.1,188.8,20.5,188.8z"/>
		<polygon fill="#215CAC" points="14.1,177.9 21.8,171.5 14.1,165.1 		"/>
		<polygon fill="#215CAC" points="21.8,170.2 21.8,177.9 24.3,177.9 24.3,165.1 21.8,165.1 		"/>
	</g>
</g>
<g>
	<g>
		<path fill="#215CAC" d="M20.5,110C9.2,110,0,119.2,0,130.5S9.2,151,20.5,151c11.3,0,20.5-9.2,20.5-20.5S31.8,110,20.5,110z
			 M20.5,147.8c-9.6,0-17.3-7.7-17.3-17.3s7.7-17.3,17.3-17.3c9.6,0,17.3,7.7,17.3,17.3S30.1,147.8,20.5,147.8z"/>
		<polygon fill="#215CAC" points="24.3,136.9 24.3,124.1 16.7,130.5 		"/>
		<polygon fill="#215CAC" points="14.1,124.1 14.1,136.9 16.7,136.9 16.7,129.2 16.7,124.1 		"/>
	</g>
</g>
<g>
	<g>
		<path fill="#215CAC" d="M20.5,192C9.2,192,0,201.2,0,212.5S9.2,233,20.5,233S41,223.8,41,212.5S31.8,192,20.5,192z M20.5,229.8
			c-9.6,0-17.3-7.7-17.3-17.3s7.7-17.3,17.3-17.3s17.3,7.7,17.3,17.3S30.1,229.8,20.5,229.8z"/>
		<g>
			<polygon fill="#215CAC" points="26.9,209.9 26.9,211.2 30.8,208.7 26.9,206.1 26.9,207.4 21.8,207.4 16.7,215.1 10.3,215.1 
				10.3,217.6 17.9,217.6 23.1,209.9 			"/>
			<polygon fill="#215CAC" points="17.6,211.3 19.1,209.1 17.9,207.4 10.3,207.4 10.3,209.9 16.7,209.9 			"/>
			<polygon fill="#215CAC" points="26.9,215.1 23.1,215.1 22.1,213.7 20.6,215.9 21.8,217.6 26.9,217.6 26.9,218.9 30.8,216.3 
				26.9,213.8 			"/>
		</g>
	</g>
</g>
<g>
	<g>
		<path fill="#999999" d="M61.5,110c-11.3,0-20.5,9.2-20.5,20.5S50.2,151,61.5,151c11.3,0,20.5-9.2,20.5-20.5S72.8,110,61.5,110z
			 M61.5,147.8c-9.6,0-17.3-7.7-17.3-17.3s7.7-17.3,17.3-17.3c9.6,0,17.3,7.7,17.3,17.3S71.1,147.8,61.5,147.8z"/>
		<polygon fill="#999999" points="65.3,136.9 65.3,124.1 57.7,130.5 		"/>
		<polygon fill="#999999" points="55.1,124.1 55.1,136.9 57.7,136.9 57.7,129.2 57.7,124.1 		"/>
	</g>
</g>
<g>
	<g>
		<path fill="#999999" d="M61.5,151c-11.3,0-20.5,9.2-20.5,20.5S50.2,192,61.5,192c11.3,0,20.5-9.2,20.5-20.5S72.8,151,61.5,151z
			 M61.5,188.8c-9.6,0-17.3-7.7-17.3-17.3s7.7-17.3,17.3-17.3c9.6,0,17.3,7.7,17.3,17.3S71.1,188.8,61.5,188.8z"/>
		<polygon fill="#999999" points="55.1,177.9 62.8,171.5 55.1,165.1 		"/>
		<polygon fill="#999999" points="62.8,170.2 62.8,177.9 65.3,177.9 65.3,165.1 62.8,165.1 		"/>
	</g>
</g>
<g>
	<g>
		<path fill="#999999" d="M61.5,192c-11.3,0-20.5,9.2-20.5,20.5S50.2,233,61.5,233S82,223.8,82,212.5S72.8,192,61.5,192z
			 M61.5,229.8c-9.6,0-17.3-7.7-17.3-17.3s7.7-17.3,17.3-17.3s17.3,7.7,17.3,17.3S71.1,229.8,61.5,229.8z"/>
		<g>
			<polygon fill="#999999" points="67.9,209.9 67.9,211.2 71.8,208.7 67.9,206.1 67.9,207.4 62.8,207.4 57.7,215.1 51.3,215.1 
				51.3,217.6 58.9,217.6 64.1,209.9 			"/>
			<polygon fill="#999999" points="58.6,211.3 60.1,209.1 58.9,207.4 51.3,207.4 51.3,209.9 57.7,209.9 			"/>
			<polygon fill="#999999" points="67.9,215.1 64.1,215.1 63.1,213.7 61.6,215.9 62.8,217.6 67.9,217.6 67.9,218.9 71.8,216.3 
				67.9,213.8 			"/>
		</g>
	</g>
</g>
</svg>
