<?xml version="1.0" encoding="utf-8"?>
<!-- Generator: Adobe Illustrator 17.1.0, SVG Export Plug-In . SVG Version: 6.00 Build 0)  -->
<!DOCTYPE svg PUBLIC "-//W3C//DTD SVG 1.1//EN" "http://www.w3.org/Graphics/SVG/1.1/DTD/svg11.dtd">
<svg version="1.1" id="Layer_1" xmlns="http://www.w3.org/2000/svg" xmlns:xlink="http://www.w3.org/1999/xlink" x="0px" y="0px"
	 width="111px" height="321px" viewBox="0 0 111 321" enable-background="new 0 0 111 321" xml:space="preserve">
<g>
	<g>
		<path fill="#999999" d="M83.5,0C68.3,0,56,12.3,56,27.5S68.3,55,83.5,55S111,42.7,111,27.5S98.7,0,83.5,0z M83.5,50.7
			c-12.8,0-23.2-10.4-23.2-23.2S70.7,4.3,83.5,4.3s23.2,10.4,23.2,23.2S96.3,50.7,83.5,50.7z"/>
		<polygon fill="#999999" points="76.6,36.1 93.8,27.5 76.6,18.9 		"/>
	</g>
</g>
<g>
	<path fill="#999999" d="M83.5,56C68.3,56,56,68.3,56,83.5S68.3,111,83.5,111S111,98.7,111,83.5S98.7,56,83.5,56z M83.5,106.7
		c-12.8,0-23.2-10.4-23.2-23.2s10.4-23.2,23.2-23.2s23.2,10.4,23.2,23.2S96.3,106.7,83.5,106.7z"/>
	<polygon fill="#999999" points="85.2,92.1 92.1,92.1 92.1,79.6 92.1,74.9 85.2,74.9 	"/>
	<rect x="74.9" y="74.9" fill="#999999" width="6.9" height="17.2"/>
</g>
<g>
	<g>
		<path fill="#215CAC" d="M27.5,0C12.3,0,0,12.3,0,27.5S12.3,55,27.5,55S55,42.7,55,27.5S42.7,0,27.5,0z M27.5,50.7
			c-12.8,0-23.2-10.4-23.2-23.2S14.7,4.3,27.5,4.3s23.2,10.4,23.2,23.2S40.3,50.7,27.5,50.7z"/>
		<polygon fill="#215CAC" points="20.6,36.1 37.8,27.5 20.6,18.9 		"/>
	</g>
</g>
<g>
	<path fill="#215CAC" d="M27.5,56C12.3,56,0,68.3,0,83.5S12.3,111,27.5,111S55,98.7,55,83.5S42.7,56,27.5,56z M27.5,106.7
		c-12.8,0-23.2-10.4-23.2-23.2s10.4-23.2,23.2-23.2s23.2,10.4,23.2,23.2S40.3,106.7,27.5,106.7z"/>
	<polygon fill="#215CAC" points="29.2,92.1 36.1,92.1 36.1,79.6 36.1,74.9 29.2,74.9 	"/>
	<rect x="18.9" y="74.9" fill="#215CAC" width="6.9" height="17.2"/>
</g>
<g>
	<g>
		<path fill="#215CAC" d="M20.5,154C9.2,154,0,163.2,0,174.5S9.2,195,20.5,195c11.3,0,20.5-9.2,20.5-20.5S31.8,154,20.5,154z
			 M20.5,191.8c-9.6,0-17.3-7.7-17.3-17.3s7.7-17.3,17.3-17.3c9.6,0,17.3,7.7,17.3,17.3S30.1,191.8,20.5,191.8z"/>
		<polygon fill="#215CAC" points="14.1,180.9 21.8,174.5 14.1,168.1 		"/>
		<polygon fill="#215CAC" points="21.8,173.2 21.8,180.9 24.3,180.9 24.3,168.1 21.8,168.1 		"/>
	</g>
</g>
<g>
	<g>
		<path fill="#215CAC" d="M20.5,112C9.2,112,0,121.2,0,132.5S9.2,153,20.5,153c11.3,0,20.5-9.2,20.5-20.5S31.8,112,20.5,112z
			 M20.5,149.8c-9.6,0-17.3-7.7-17.3-17.3s7.7-17.3,17.3-17.3c9.6,0,17.3,7.7,17.3,17.3S30.1,149.8,20.5,149.8z"/>
		<polygon fill="#215CAC" points="24.3,138.9 24.3,126.1 16.7,132.5 		"/>
		<polygon fill="#215CAC" points="14.1,126.1 14.1,138.9 16.7,138.9 16.7,131.2 16.7,126.1 		"/>
	</g>
</g>
<g>
	<g>
		<path fill="#215CAC" d="M20.5,196C9.2,196,0,205.2,0,216.5S9.2,237,20.5,237S41,227.8,41,216.5S31.8,196,20.5,196z M20.5,233.8
			c-9.6,0-17.3-7.7-17.3-17.3s7.7-17.3,17.3-17.3s17.3,7.7,17.3,17.3S30.1,233.8,20.5,233.8z"/>
		<g>
			<polygon fill="#215CAC" points="26.9,213.9 26.9,215.2 30.8,212.7 26.9,210.1 26.9,211.4 21.8,211.4 16.7,219.1 10.3,219.1 
				10.3,221.6 17.9,221.6 23.1,213.9 			"/>
			<polygon fill="#215CAC" points="17.6,215.3 19.1,213.1 17.9,211.4 10.3,211.4 10.3,213.9 16.7,213.9 			"/>
			<polygon fill="#215CAC" points="26.9,219.1 23.1,219.1 22.1,217.7 20.6,219.9 21.8,221.6 26.9,221.6 26.9,222.9 30.8,220.3 
				26.9,217.8 			"/>
		</g>
	</g>
</g>
<g>
	<g>
		<path fill="#999999" d="M62.5,112c-11.3,0-20.5,9.2-20.5,20.5S51.2,153,62.5,153c11.3,0,20.5-9.2,20.5-20.5S73.8,112,62.5,112z
			 M62.5,149.8c-9.6,0-17.3-7.7-17.3-17.3s7.7-17.3,17.3-17.3c9.6,0,17.3,7.7,17.3,17.3S72.1,149.8,62.5,149.8z"/>
		<polygon fill="#999999" points="66.3,138.9 66.3,126.1 58.7,132.5 		"/>
		<polygon fill="#999999" points="56.1,126.1 56.1,138.9 58.7,138.9 58.7,131.2 58.7,126.1 		"/>
	</g>
</g>
<g>
	<g>
		<path fill="#999999" d="M62.5,154c-11.3,0-20.5,9.2-20.5,20.5S51.2,195,62.5,195c11.3,0,20.5-9.2,20.5-20.5S73.8,154,62.5,154z
			 M62.5,191.8c-9.6,0-17.3-7.7-17.3-17.3s7.7-17.3,17.3-17.3c9.6,0,17.3,7.7,17.3,17.3S72.1,191.8,62.5,191.8z"/>
		<polygon fill="#999999" points="56.1,180.9 63.8,174.5 56.1,168.1 		"/>
		<polygon fill="#999999" points="63.8,173.2 63.8,180.9 66.3,180.9 66.3,168.1 63.8,168.1 		"/>
	</g>
</g>
<g>
	<g>
		<path fill="#999999" d="M62.5,196c-11.3,0-20.5,9.2-20.5,20.5S51.2,237,62.5,237S83,227.8,83,216.5S73.8,196,62.5,196z
			 M62.5,233.8c-9.6,0-17.3-7.7-17.3-17.3s7.7-17.3,17.3-17.3s17.3,7.7,17.3,17.3S72.1,233.8,62.5,233.8z"/>
		<g>
			<polygon fill="#999999" points="68.9,213.9 68.9,215.2 72.8,212.7 68.9,210.1 68.9,211.4 63.8,211.4 58.7,219.1 52.3,219.1 
				52.3,221.6 59.9,221.6 65.1,213.9 			"/>
			<polygon fill="#999999" points="59.6,215.3 61.1,213.1 59.9,211.4 52.3,211.4 52.3,213.9 58.7,213.9 			"/>
			<polygon fill="#999999" points="68.9,219.1 65.1,219.1 64.1,217.7 62.6,219.9 63.8,221.6 68.9,221.6 68.9,222.9 72.8,220.3 
				68.9,217.8 			"/>
		</g>
	</g>
</g>
<g>
	<path fill="#215CAC" d="M11.8,255.8l3.1,0l4.7-3.9v13.3l-4.7-4.7h-3.1c-0.9,0-1.6-0.7-1.6-1.6v-1.6C10.3,256.5,11,255.8,11.8,255.8
		z M21.9,261.3l2.8-2.8l-2.8-2.8l1.7-1.7l2.8,2.8l2.8-2.8l1.7,1.7l-2.8,2.8l2.8,2.8l-1.7,1.7l-2.8-2.8l-2.8,2.8L21.9,261.3z"/>
	<path fill="#215CAC" d="M20.5,238C9.2,238,0,247.2,0,258.5C0,269.8,9.2,279,20.5,279S41,269.8,41,258.5C41,247.2,31.8,238,20.5,238
		z M20.5,275.8c-9.6,0-17.3-7.7-17.3-17.3s7.7-17.3,17.3-17.3s17.3,7.7,17.3,17.3S30.1,275.8,20.5,275.8z"/>
</g>
<g>
	<g>
		<g>
			<path fill="#215CAC" d="M31.2,300.6c0,2.6-1.1,4.9-2.8,6.6l-1.2-1.2c1.4-1.4,2.3-3.3,2.3-5.4c0-2.1-0.9-4.1-2.3-5.5l1-1.4
				C30,295.5,31.2,297.9,31.2,300.6z"/>
			<path fill="#215CAC" d="M27.8,300.6c0,1.9-0.9,3.5-2.2,4.6l-1.2-1.2c1-0.8,1.7-2,1.7-3.4c0-1.4-0.7-2.6-1.7-3.4l1.2-1.2
				C26.9,297.1,27.8,298.7,27.8,300.6z"/>
			<path fill="#215CAC" d="M24.3,300.6c0,1.1-0.7,2.1-1.8,2.4l-0.8-1.6c0.5,0,0.9-0.4,0.9-0.9c0-0.5-0.4-0.9-0.9-0.9l0.8-1.6
				C23.6,298.5,24.3,299.5,24.3,300.6z"/>
		</g>
		<path fill="#215CAC" d="M11.8,297.8l3.1,0l4.7-3.9v13.3l-4.7-4.7h-3.1c-0.9,0-1.6-0.7-1.6-1.6v-1.6
			C10.3,298.5,11,297.8,11.8,297.8z"/>
	</g>
	<path fill="#215CAC" d="M20.5,280C9.2,280,0,289.2,0,300.5S9.2,321,20.5,321S41,311.8,41,300.5S31.8,280,20.5,280z M20.5,317.8
		c-9.6,0-17.3-7.7-17.3-17.3s7.7-17.3,17.3-17.3s17.3,7.7,17.3,17.3S30.1,317.8,20.5,317.8z"/>
</g>
<g>
	<path fill="#999999" d="M53.8,255.8l3.1,0l4.7-3.9v13.3l-4.7-4.7h-3.1c-0.9,0-1.6-0.7-1.6-1.6v-1.6C52.3,256.5,53,255.8,53.8,255.8
		z M63.9,261.3l2.8-2.8l-2.8-2.8l1.7-1.7l2.8,2.8l2.8-2.8l1.7,1.7l-2.8,2.8l2.8,2.8l-1.7,1.7l-2.8-2.8l-2.8,2.8L63.9,261.3z"/>
	<path fill="#999999" d="M62.5,238c-11.3,0-20.5,9.2-20.5,20.5c0,11.3,9.2,20.5,20.5,20.5S83,269.8,83,258.5
		C83,247.2,73.8,238,62.5,238z M62.5,275.8c-9.6,0-17.3-7.7-17.3-17.3s7.7-17.3,17.3-17.3s17.3,7.7,17.3,17.3S72.1,275.8,62.5,275.8
		z"/>
</g>
<g>
	<g>
		<g>
			<path fill="#999999" d="M73.2,300.6c0,2.6-1.1,4.9-2.8,6.6l-1.2-1.2c1.4-1.4,2.3-3.3,2.3-5.4c0-2.1-0.9-4.1-2.3-5.5l1-1.4
				C72,295.5,73.2,297.9,73.2,300.6z"/>
			<path fill="#999999" d="M69.8,300.6c0,1.9-0.9,3.5-2.2,4.6l-1.2-1.2c1-0.8,1.7-2,1.7-3.4c0-1.4-0.7-2.6-1.7-3.4l1.2-1.2
				C68.9,297.1,69.8,298.7,69.8,300.6z"/>
			<path fill="#999999" d="M66.3,300.6c0,1.1-0.7,2.1-1.8,2.4l-0.8-1.6c0.5,0,0.9-0.4,0.9-0.9c0-0.5-0.4-0.9-0.9-0.9l0.8-1.6
				C65.6,298.5,66.3,299.5,66.3,300.6z"/>
		</g>
		<path fill="#999999" d="M53.8,297.8l3.1,0l4.7-3.9v13.3l-4.7-4.7h-3.1c-0.9,0-1.6-0.7-1.6-1.6v-1.6
			C52.3,298.5,53,297.8,53.8,297.8z"/>
	</g>
	<path fill="#999999" d="M62.5,280c-11.3,0-20.5,9.2-20.5,20.5S51.2,321,62.5,321S83,311.8,83,300.5S73.8,280,62.5,280z M62.5,317.8
		c-9.6,0-17.3-7.7-17.3-17.3s7.7-17.3,17.3-17.3s17.3,7.7,17.3,17.3S72.1,317.8,62.5,317.8z"/>
</g>
</svg>
