<?xml version="1.0" encoding="utf-8"?>
<!-- Generator: Adobe Illustrator 17.1.0, SVG Export Plug-In . SVG Version: 6.00 Build 0)  -->
<!DOCTYPE svg PUBLIC "-//W3C//DTD SVG 1.1//EN" "http://www.w3.org/Graphics/SVG/1.1/DTD/svg11.dtd">
<svg version="1.1" id="Layer_1" xmlns="http://www.w3.org/2000/svg" xmlns:xlink="http://www.w3.org/1999/xlink" x="0px" y="0px"
	 width="64px" height="32px" viewBox="0 0 64 32" enable-background="new 0 0 64 32" xml:space="preserve">
<g>
	<g>
		<g>
			<path fill="#999999" d="M48,0c-8.8,0-16,7.2-16,16s7.2,16,16,16s16-7.2,16-16S56.8,0,48,0z M48,29.5c-7.5,0-13.5-6-13.5-13.5
				S40.5,2.5,48,2.5c7.5,0,13.5,6,13.5,13.5S55.5,29.5,48,29.5z"/>
		</g>
		<path fill="#999999" d="M43,22H53V24H43V22z M46.8,8h2.3v8l3.1-3.7V16L48,20.9L43.7,16v-3.7l3.1,3.7V8z"/>
	</g>
	<g>
		<g>
			<path fill="#FFFFFF" d="M16,0C7.2,0,0,7.2,0,16s7.2,16,16,16s16-7.2,16-16S24.8,0,16,0z M16,29.5c-7.5,0-13.5-6-13.5-13.5
				S8.5,2.5,16,2.5s13.5,6,13.5,13.5S23.5,29.5,16,29.5z"/>
		</g>
		<path fill="#FFFFFF" d="M11,22H21V24H11V22z M14.8,8h2.3v8l3.1-3.7V16L16,20.9L11.7,16v-3.7l3.1,3.7V8z"/>
	</g>
</g>
<g>
	<g>
		<path fill="#999999" d="M48,32c-8.8,0-16,7.2-16,16s7.2,16,16,16c8.8,0,16-7.2,16-16S56.8,32,48,32z M48,61.5
			c-7.5,0-13.5-6-13.5-13.5s6-13.5,13.5-13.5c7.5,0,13.5,6,13.5,13.5S55.5,61.5,48,61.5z"/>
	</g>
	<g>
		<path fill="#FFFFFF" d="M16,32C7.2,32,0,39.2,0,48s7.2,16,16,16c8.8,0,16-7.2,16-16S24.8,32,16,32z M16,61.5
			c-7.5,0-13.5-6-13.5-13.5s6-13.5,13.5-13.5c7.5,0,13.5,6,13.5,13.5S23.5,61.5,16,61.5z"/>
	</g>
</g>
</svg>
