<svg xmlns="http://www.w3.org/2000/svg" version="1.1" x="0" y="0" width="64" height="32" viewBox="0" enable-background="new 0 0 64 32" xml:space="preserve"><path fill="#999999" d="M48 0c-8.8 0-16 7.2-16 16s7.2 16 16 16 16-7.2 16-16S56.8 0 48 0zM48 29.5c-7.5 0-13.5-6-13.5-13.5S40.5 2.5 48 2.5s13.5 6 13.5 13.5S55.5 29.5 48 29.5z"/><path fill="#999999" d="M43 22h10v2H43V22zM46.8 8h2.3v8l3.1-3.7V16L48 20.9 43.7 16v-3.7l3.1 3.7V8z"/><path fill="#FFF" d="M16 0C7.2 0 0 7.2 0 16s7.2 16 16 16 16-7.2 16-16S24.8 0 16 0zM16 29.5c-7.5 0-13.5-6-13.5-13.5S8.5 2.5 16 2.5s13.5 6 13.5 13.5S23.5 29.5 16 29.5z"/><path fill="#FFF" d="M11 22h10v2H11V22zM14.8 8h2.3v8l3.1-3.7V16L16 20.9 11.7 16v-3.7l3.1 3.7V8z"/></svg>