<?xml version="1.0" encoding="utf-8"?>
<!-- Generator: Adobe Illustrator 17.1.0, SVG Export Plug-In . SVG Version: 6.00 Build 0)  -->
<!DOCTYPE svg PUBLIC "-//W3C//DTD SVG 1.1//EN" "http://www.w3.org/Graphics/SVG/1.1/DTD/svg11.dtd">
<svg version="1.1" id="Layer_1" xmlns="http://www.w3.org/2000/svg" xmlns:xlink="http://www.w3.org/1999/xlink" x="0px" y="0px"
	 width="64px" height="32px" viewBox="0 0 64 32" enable-background="new 0 0 64 32" xml:space="preserve">
<g>
	<g>
		<g>
			<path fill="#999999" d="M49.9,8c1.1,0,1.6,0.7,1.6,1.6c0,1-0.9,2-2.1,2c-1,0-1.6-0.6-1.6-1.6C47.8,9.1,48.5,8,49.9,8z M46.6,24
				c-0.8,0-1.5-0.5-0.9-2.8l1-4.1c0.2-0.7,0.2-0.9,0-0.9c-0.3,0-1.4,0.5-2,0.9l-0.4-0.7c2.1-1.8,4.4-2.8,5.4-2.8c0.8,0,1,1,0.6,2.6
				l-1.1,4.3c-0.2,0.8-0.1,1,0.1,1c0.3,0,1.1-0.3,1.9-1l0.5,0.7C49.7,23.2,47.5,24,46.6,24z"/>
		</g>
		<g>
			<path fill="#999999" d="M48,0c-8.8,0-16,7.2-16,16s7.2,16,16,16c8.8,0,16-7.2,16-16S56.8,0,48,0z M48,29.5
				c-7.5,0-13.5-6-13.5-13.5S40.5,2.5,48,2.5c7.5,0,13.5,6,13.5,13.5S55.5,29.5,48,29.5z"/>
		</g>
	</g>
	<g>
		<g>
			<path fill="#FFFFFF" d="M17.9,8c1.1,0,1.6,0.7,1.6,1.6c0,1-0.9,2-2.1,2c-1,0-1.6-0.6-1.6-1.6C15.8,9.1,16.5,8,17.9,8z M14.6,24
				c-0.8,0-1.5-0.5-0.9-2.8l1-4.1c0.2-0.7,0.2-0.9,0-0.9c-0.3,0-1.4,0.5-2,0.9l-0.4-0.7c2.1-1.8,4.4-2.8,5.4-2.8c0.8,0,1,1,0.6,2.6
				l-1.1,4.3c-0.2,0.8-0.1,1,0.1,1c0.3,0,1.1-0.3,1.9-1l0.5,0.7C17.7,23.2,15.5,24,14.6,24z"/>
		</g>
		<g>
			<path fill="#FFFFFF" d="M16,0C7.2,0,0,7.2,0,16s7.2,16,16,16c8.8,0,16-7.2,16-16S24.8,0,16,0z M16,29.5c-7.5,0-13.5-6-13.5-13.5
				S8.5,2.5,16,2.5c7.5,0,13.5,6,13.5,13.5S23.5,29.5,16,29.5z"/>
		</g>
	</g>
</g>
<g>
	<g>
		<path fill="#999999" d="M48,32c-8.8,0-16,7.2-16,16s7.2,16,16,16s16-7.2,16-16S56.8,32,48,32z M48,61.5c-7.5,0-13.5-6-13.5-13.5
			s6-13.5,13.5-13.5c7.5,0,13.5,6,13.5,13.5S55.5,61.5,48,61.5z"/>
	</g>
	<g>
		<path fill="#FFFFFF" d="M16,32C7.2,32,0,39.2,0,48s7.2,16,16,16s16-7.2,16-16S24.8,32,16,32z M16,61.5c-7.5,0-13.5-6-13.5-13.5
			s6-13.5,13.5-13.5s13.5,6,13.5,13.5S23.5,61.5,16,61.5z"/>
	</g>
</g>
</svg>
