<svg xmlns="http://www.w3.org/2000/svg" version="1.1" x="0" y="0" width="64" height="32" viewBox="0" enable-background="new 0 0 64 32" xml:space="preserve"><path fill="#999999" d="M49.9 8c1.1 0 1.6 0.7 1.6 1.6 0 1-0.9 2-2.1 2 -1 0-1.6-0.6-1.6-1.6C47.8 9.1 48.5 8 49.9 8zM46.6 24c-0.8 0-1.5-0.5-0.9-2.8l1-4.1c0.2-0.7 0.2-0.9 0-0.9 -0.3 0-1.4 0.5-2 0.9l-0.4-0.7c2.1-1.8 4.4-2.8 5.4-2.8 0.8 0 1 1 0.6 2.6l-1.1 4.3c-0.2 0.8-0.1 1 0.1 1 0.3 0 1.1-0.3 1.9-1l0.5 0.7C49.7 23.2 47.5 24 46.6 24z"/><path fill="#999999" d="M48 0c-8.8 0-16 7.2-16 16s7.2 16 16 16c8.8 0 16-7.2 16-16S56.8 0 48 0zM48 29.5c-7.5 0-13.5-6-13.5-13.5S40.5 2.5 48 2.5c7.5 0 13.5 6 13.5 13.5S55.5 29.5 48 29.5z"/><path fill="#FFF" d="M17.9 8c1.1 0 1.6 0.7 1.6 1.6 0 1-0.9 2-2.1 2 -1 0-1.6-0.6-1.6-1.6C15.8 9.1 16.5 8 17.9 8zM14.6 24c-0.8 0-1.5-0.5-0.9-2.8l1-4.1c0.2-0.7 0.2-0.9 0-0.9 -0.3 0-1.4 0.5-2 0.9l-0.4-0.7c2.1-1.8 4.4-2.8 5.4-2.8 0.8 0 1 1 0.6 2.6l-1.1 4.3c-0.2 0.8-0.1 1 0.1 1 0.3 0 1.1-0.3 1.9-1l0.5 0.7C17.7 23.2 15.5 24 14.6 24z"/><path fill="#FFF" d="M16 0C7.2 0 0 7.2 0 16s7.2 16 16 16c8.8 0 16-7.2 16-16S24.8 0 16 0zM16 29.5c-7.5 0-13.5-6-13.5-13.5S8.5 2.5 16 2.5c7.5 0 13.5 6 13.5 13.5S23.5 29.5 16 29.5z"/><path fill="#999999" d="M48 32c-8.8 0-16 7.2-16 16s7.2 16 16 16 16-7.2 16-16S56.8 32 48 32zM48 61.5c-7.5 0-13.5-6-13.5-13.5s6-13.5 13.5-13.5c7.5 0 13.5 6 13.5 13.5S55.5 61.5 48 61.5z"/><path fill="#FFF" d="M16 32C7.2 32 0 39.2 0 48s7.2 16 16 16 16-7.2 16-16S24.8 32 16 32zM16 61.5c-7.5 0-13.5-6-13.5-13.5s6-13.5 13.5-13.5 13.5 6 13.5 13.5S23.5 61.5 16 61.5z"/></svg>