<svg xmlns="http://www.w3.org/2000/svg" version="1.1" x="0" y="0" width="64" height="64" viewBox="0" enable-background="new 0 0 64 64" xml:space="preserve"><path fill="#FFF" d="M10 15.4h1.2v-1.8c0-2.7 2.1-4.8 4.8-4.8s4.8 2.1 4.8 4.8v1.8H22l0 7.8H10V15.4zM19 13.6c0-1.7-1.3-3-3-3 -1.7 0-3 1.3-3 3v1.8h6L19 13.6zM16 0C7.2 0 0 7.2 0 16s7.2 16 16 16 16-7.2 16-16S24.8 0 16 0zM16 29.5c-7.5 0-13.5-6-13.5-13.5S8.5 2.5 16 2.5s13.5 6 13.5 13.5S23.5 29.5 16 29.5z"/><path fill="#FFF" d="M10 47.4h1.2l0-1.8c0-2.7 2.1-4.8 4.8-4.8s4.8 2.1 4.8 4.8H19c0-1.7-1.3-3-3-3 -1.7 0-3 1.3-3 3v1.8l9 0 0 7.8H10V47.4zM16 32C7.2 32 0 39.2 0 48s7.2 16 16 16 16-7.2 16-16S24.8 32 16 32zM16 61.5c-7.5 0-13.5-6-13.5-13.5s6-13.5 13.5-13.5 13.5 6 13.5 13.5S23.5 61.5 16 61.5z"/><path fill="#999999" d="M42 15.4h1.2v-1.8c0-2.7 2.1-4.8 4.8-4.8 2.7 0 4.8 2.1 4.8 4.8v1.8H54l0 7.8H42V15.4zM51 13.6c0-1.7-1.3-3-3-3 -1.7 0-3 1.3-3 3v1.8h6L51 13.6zM48 0c-8.8 0-16 7.2-16 16s7.2 16 16 16 16-7.2 16-16S56.8 0 48 0zM48 29.5c-7.5 0-13.5-6-13.5-13.5S40.5 2.5 48 2.5s13.5 6 13.5 13.5S55.5 29.5 48 29.5z"/><path fill="#999999" d="M42 47.4h1.2l0-1.8c0-2.7 2.1-4.8 4.8-4.8 2.7 0 4.8 2.1 4.8 4.8H51c0-1.7-1.3-3-3-3 -1.7 0-3 1.3-3 3v1.8l9 0 0 7.8H42V47.4zM48 32c-8.8 0-16 7.2-16 16s7.2 16 16 16 16-7.2 16-16S56.8 32 48 32zM48 61.5c-7.5 0-13.5-6-13.5-13.5s6-13.5 13.5-13.5 13.5 6 13.5 13.5S55.5 61.5 48 61.5z"/></svg>