<?xml version="1.0" encoding="utf-8"?>
<!-- Generator: Adobe Illustrator 17.1.0, SVG Export Plug-In . SVG Version: 6.00 Build 0)  -->
<!DOCTYPE svg PUBLIC "-//W3C//DTD SVG 1.1//EN" "http://www.w3.org/Graphics/SVG/1.1/DTD/svg11.dtd">
<svg version="1.1" id="Layer_1" xmlns="http://www.w3.org/2000/svg" xmlns:xlink="http://www.w3.org/1999/xlink" x="0px" y="0px"
	 width="64px" height="64px" viewBox="0 0 64 64" enable-background="new 0 0 64 64" xml:space="preserve">
<g>
	<g>
		<path fill="#FFFFFF" d="M10,15.4h1.2v-1.8c0-2.7,2.1-4.8,4.8-4.8s4.8,2.1,4.8,4.8v1.8H22l0,7.8H10V15.4z M19,13.6c0-1.7-1.3-3-3-3
			c-1.7,0-3,1.3-3,3v1.8h6L19,13.6z"/>
		<path fill="#FFFFFF" d="M16,0C7.2,0,0,7.2,0,16s7.2,16,16,16s16-7.2,16-16S24.8,0,16,0z M16,29.5c-7.5,0-13.5-6-13.5-13.5
			S8.5,2.5,16,2.5s13.5,6,13.5,13.5S23.5,29.5,16,29.5z"/>
	</g>
	<g>
		<path fill="#FFFFFF" d="M10,47.4h1.2l0-1.8c0-2.7,2.1-4.8,4.8-4.8s4.8,2.1,4.8,4.8H19c0-1.7-1.3-3-3-3c-1.7,0-3,1.3-3,3v1.8l9,0
			l0,7.8H10V47.4z"/>
		<path fill="#FFFFFF" d="M16,32C7.2,32,0,39.2,0,48s7.2,16,16,16s16-7.2,16-16S24.8,32,16,32z M16,61.5c-7.5,0-13.5-6-13.5-13.5
			s6-13.5,13.5-13.5s13.5,6,13.5,13.5S23.5,61.5,16,61.5z"/>
	</g>
	<g>
		<path fill="#999999" d="M42,15.4h1.2v-1.8c0-2.7,2.1-4.8,4.8-4.8c2.7,0,4.8,2.1,4.8,4.8v1.8H54l0,7.8H42V15.4z M51,13.6
			c0-1.7-1.3-3-3-3c-1.7,0-3,1.3-3,3v1.8h6L51,13.6z"/>
		<path fill="#999999" d="M48,0c-8.8,0-16,7.2-16,16s7.2,16,16,16s16-7.2,16-16S56.8,0,48,0z M48,29.5c-7.5,0-13.5-6-13.5-13.5
			S40.5,2.5,48,2.5s13.5,6,13.5,13.5S55.5,29.5,48,29.5z"/>
	</g>
	<g>
		<path fill="#999999" d="M42,47.4h1.2l0-1.8c0-2.7,2.1-4.8,4.8-4.8c2.7,0,4.8,2.1,4.8,4.8H51c0-1.7-1.3-3-3-3c-1.7,0-3,1.3-3,3v1.8
			l9,0l0,7.8H42V47.4z"/>
		<path fill="#999999" d="M48,32c-8.8,0-16,7.2-16,16s7.2,16,16,16s16-7.2,16-16S56.8,32,48,32z M48,61.5c-7.5,0-13.5-6-13.5-13.5
			s6-13.5,13.5-13.5s13.5,6,13.5,13.5S55.5,61.5,48,61.5z"/>
	</g>
</g>
</svg>
