<?xml version="1.0" encoding="utf-8"?>
<!-- Generator: Adobe Illustrator 17.1.0, SVG Export Plug-In . SVG Version: 6.00 Build 0)  -->
<!DOCTYPE svg PUBLIC "-//W3C//DTD SVG 1.1//EN" "http://www.w3.org/Graphics/SVG/1.1/DTD/svg11.dtd">
<svg version="1.1" id="Layer_1" xmlns="http://www.w3.org/2000/svg" xmlns:xlink="http://www.w3.org/1999/xlink" x="0px" y="0px"
	 width="64px" height="32px" viewBox="0 0 64 32" enable-background="new 0 0 64 32" xml:space="preserve">
<g>
	<g>
		<path fill="#999999" d="M48,0c-8.8,0-16,7.2-16,16s7.2,16,16,16c8.8,0,16-7.2,16-16S56.8,0,48,0z M48,29.5
			c-7.5,0-13.5-6-13.5-13.5S40.5,2.5,48,2.5c7.5,0,13.5,6,13.5,13.5S55.5,29.5,48,29.5z"/>
		<g>
			<path fill="#999999" d="M53,15h-1l0-2.9c0-1.7-1.8-3.1-4-3.1c-2.2,0-4,1.4-4,3.1l0,2.9h-1c-0.6,0-1,0.4-1,0.9l0,6.2
				c0,0.4,0.5,0.9,1,0.9h10c0.5,0,1-0.4,1-0.9l0-6.2C54,15.4,53.5,15,53,15z M50,15h-4v-3c0-0.9,0.9-1.4,2-1.4c1.1,0,2,0.6,2,1.4
				L50,15z"/>
		</g>
	</g>
	<g>
		<path fill="#FFFFFF" d="M16,0C7.2,0,0,7.2,0,16s7.2,16,16,16c8.8,0,16-7.2,16-16S24.8,0,16,0z M16,29.5c-7.5,0-13.5-6-13.5-13.5
			S8.5,2.5,16,2.5c7.5,0,13.5,6,13.5,13.5S23.5,29.5,16,29.5z"/>
		<g>
			<path fill="#FFFFFF" d="M21,15h-1l0-2.9c0-1.7-1.8-3.1-4-3.1c-2.2,0-4,1.4-4,3.1l0,2.9h-1c-0.6,0-1,0.4-1,0.9l0,6.2
				c0,0.4,0.5,0.9,1,0.9h10c0.5,0,1-0.4,1-0.9l0-6.2C22,15.4,21.5,15,21,15z M18,15h-4v-3c0-0.9,0.9-1.4,2-1.4c1.1,0,2,0.6,2,1.4
				L18,15z"/>
		</g>
	</g>
</g>
</svg>
