<svg xmlns="http://www.w3.org/2000/svg" version="1.1" x="0" y="0" width="64" height="32" viewBox="0" enable-background="new 0 0 64 32" xml:space="preserve"><path fill="#999999" d="M48 0c-8.8 0-16 7.2-16 16s7.2 16 16 16c8.8 0 16-7.2 16-16S56.8 0 48 0zM48 29.5c-7.5 0-13.5-6-13.5-13.5S40.5 2.5 48 2.5c7.5 0 13.5 6 13.5 13.5S55.5 29.5 48 29.5z"/><path fill="#999999" d="M53 15h-1l0-2.9c0-1.7-1.8-3.1-4-3.1 -2.2 0-4 1.4-4 3.1l0 2.9h-1c-0.6 0-1 0.4-1 0.9l0 6.2c0 0.4 0.5 0.9 1 0.9h10c0.5 0 1-0.4 1-0.9l0-6.2C54 15.4 53.5 15 53 15zM50 15h-4v-3c0-0.9 0.9-1.4 2-1.4 1.1 0 2 0.6 2 1.4L50 15z"/><path fill="#FFF" d="M16 0C7.2 0 0 7.2 0 16s7.2 16 16 16c8.8 0 16-7.2 16-16S24.8 0 16 0zM16 29.5c-7.5 0-13.5-6-13.5-13.5S8.5 2.5 16 2.5c7.5 0 13.5 6 13.5 13.5S23.5 29.5 16 29.5z"/><path fill="#FFF" d="M21 15h-1l0-2.9c0-1.7-1.8-3.1-4-3.1 -2.2 0-4 1.4-4 3.1l0 2.9h-1c-0.6 0-1 0.4-1 0.9l0 6.2c0 0.4 0.5 0.9 1 0.9h10c0.5 0 1-0.4 1-0.9l0-6.2C22 15.4 21.5 15 21 15zM18 15h-4v-3c0-0.9 0.9-1.4 2-1.4 1.1 0 2 0.6 2 1.4L18 15z"/></svg>