<svg xmlns="http://www.w3.org/2000/svg" version="1.1" x="0" y="0" width="65" height="50" viewBox="0" enable-background="new 0 0 65 50" xml:space="preserve"><path fill="#FFF" d="M14.9 46.6c-1.1 1.1-2.2 2.3-3.3 3.4C-2.9 38.3-4.7 13.9 11.4 0c1.1 1.1 2.2 2.3 3.3 3.4C8.3 9.1 4.8 16.3 4.8 25 4.9 33.8 8.4 40.9 14.9 46.6zM50.1 46.6c6.5-5.7 10-12.8 10.1-21.6 0-8.7-3.5-15.9-9.8-21.6 1.1-1.1 2.2-2.2 3.3-3.4C69 13.2 68.6 37.3 53.4 50 52.3 48.9 51.2 47.7 50.1 46.6zM41.7 38.1c8.9-6.4 9-19.7 0.2-26.2 1.1-1.1 2.3-2.3 3.4-3.4 10.4 7.9 10.9 24.5-0.2 33.1C43.9 40.4 42.8 39.3 41.7 38.1zM23.4 38.1c-0.1 0.1-0.1 0.2-0.2 0.3 -1 1.1-2.1 2.1-3.1 3.2 -10.7-8-11.1-24.6-0.3-33.1 1.1 1.1 2.3 2.3 3.4 3.4 -4.2 3.3-6.5 7.7-6.5 13.2C16.6 30.6 19.1 34.9 23.4 38.1zM32.5 18.8c3.4 0 6.1 2.8 6.1 6.3 0 3.4-2.7 6.1-6.2 6.1 -3.3 0-6-2.8-6-6.3C26.4 21.5 29.1 18.8 32.5 18.8z"/></svg>