<?xml version="1.0" encoding="utf-8"?>
<!-- Generator: Adobe Illustrator 17.1.0, SVG Export Plug-In . SVG Version: 6.00 Build 0)  -->
<!DOCTYPE svg PUBLIC "-//W3C//DTD SVG 1.1//EN" "http://www.w3.org/Graphics/SVG/1.1/DTD/svg11.dtd">
<svg version="1.1" id="Layer_1" xmlns="http://www.w3.org/2000/svg" xmlns:xlink="http://www.w3.org/1999/xlink" x="0px" y="0px"
	 width="65px" height="50px" viewBox="0 0 65 50" enable-background="new 0 0 65 50" xml:space="preserve">
<g>
	<path fill="#FFFFFF" d="M14.9,46.6c-1.1,1.1-2.2,2.3-3.3,3.4C-2.9,38.3-4.7,13.9,11.4,0c1.1,1.1,2.2,2.3,3.3,3.4
		C8.3,9.1,4.8,16.3,4.8,25C4.9,33.8,8.4,40.9,14.9,46.6z"/>
	<path fill="#FFFFFF" d="M50.1,46.6c6.5-5.7,10-12.8,10.1-21.6c0-8.7-3.5-15.9-9.8-21.6c1.1-1.1,2.2-2.2,3.3-3.4
		C69,13.2,68.6,37.3,53.4,50C52.3,48.9,51.2,47.7,50.1,46.6z"/>
	<path fill="#FFFFFF" d="M41.7,38.1c8.9-6.4,9-19.7,0.2-26.2c1.1-1.1,2.3-2.3,3.4-3.4c10.4,7.9,10.9,24.5-0.2,33.1
		C43.9,40.4,42.8,39.3,41.7,38.1z"/>
	<path fill="#FFFFFF" d="M23.4,38.1c-0.1,0.1-0.1,0.2-0.2,0.3c-1,1.1-2.1,2.1-3.1,3.2c-10.7-8-11.1-24.6-0.3-33.1
		c1.1,1.1,2.3,2.3,3.4,3.4c-4.2,3.3-6.5,7.7-6.5,13.2C16.6,30.6,19.1,34.9,23.4,38.1z"/>
	<path fill="#FFFFFF" d="M32.5,18.8c3.4,0,6.1,2.8,6.1,6.3c0,3.4-2.7,6.1-6.2,6.1c-3.3,0-6-2.8-6-6.3C26.4,21.5,29.1,18.8,32.5,18.8
		z"/>
</g>
<g>
</g>
<g>
</g>
<g>
</g>
<g>
</g>
<g>
</g>
<g>
</g>
<g>
</g>
<g>
</g>
<g>
</g>
<g>
</g>
<g>
</g>
<g>
</g>
<g>
</g>
<g>
</g>
<g>
</g>
</svg>
