<?xml version="1.0" encoding="utf-8"?>
<!-- Generator: Adobe Illustrator 17.1.0, SVG Export Plug-In . SVG Version: 6.00 Build 0)  -->
<!DOCTYPE svg PUBLIC "-//W3C//DTD SVG 1.1//EN" "http://www.w3.org/Graphics/SVG/1.1/DTD/svg11.dtd">
<svg version="1.1" id="Layer_1" xmlns="http://www.w3.org/2000/svg" xmlns:xlink="http://www.w3.org/1999/xlink" x="0px" y="0px"
	 width="64px" height="32px" viewBox="0 0 64 32" enable-background="new 0 0 64 32" xml:space="preserve">
<g>
	<path fill="#FFFFFF" d="M16,0C7.2,0,0,7.2,0,16s7.2,16,16,16s16-7.2,16-16S24.8,0,16,0z M16,29.5c-7.5,0-13.5-6-13.5-13.5
		S8.5,2.5,16,2.5s13.5,6,13.5,13.5S23.5,29.5,16,29.5z"/>
	<g>
		<path fill="#FFFFFF" d="M22.8,11.6l-1.6-3.1C21.1,8.2,20.8,8,20.5,8h-9c-0.3,0-0.6,0.2-0.7,0.4l-1.6,3.1C9.1,11.8,9,12.2,9,12.5v2
			C9,14.8,9.2,15,9.5,15h13c0.3,0,0.5-0.2,0.5-0.5v-2C23,12.2,22.9,11.8,22.8,11.6z M10.5,14c-0.3,0-0.5-0.2-0.5-0.5
			s0.2-0.5,0.5-0.5c0.3,0,0.5,0.2,0.5,0.5S10.8,14,10.5,14z M12.5,14c-0.3,0-0.5-0.2-0.5-0.5s0.2-0.5,0.5-0.5c0.3,0,0.5,0.2,0.5,0.5
			S12.8,14,12.5,14z M14.5,14c-0.3,0-0.5-0.2-0.5-0.5s0.2-0.5,0.5-0.5c0.3,0,0.5,0.2,0.5,0.5S14.8,14,14.5,14z M21.5,14
			c-0.3,0-0.5-0.2-0.5-0.5s0.2-0.5,0.5-0.5c0.3,0,0.5,0.2,0.5,0.5S21.8,14,21.5,14z"/>
		<path fill="#FFFFFF" d="M22.5,16h-13C9.2,16,9,16.2,9,16.5v2C9,18.8,9.2,19,9.5,19h4c0.3,0,0.7,0,1,0c0.1,0,0.3,0,0.5,0v3h-4v2h4
			h2h4v-2h-4v-3c0.2,0,0.4,0,0.5,0c0.3,0,0.7,0,1,0h4c0.3,0,0.5-0.2,0.5-0.5v-2C23,16.2,22.8,16,22.5,16z M10.5,18
			c-0.3,0-0.5-0.2-0.5-0.5s0.2-0.5,0.5-0.5c0.3,0,0.5,0.2,0.5,0.5S10.8,18,10.5,18z M12.5,18c-0.3,0-0.5-0.2-0.5-0.5
			s0.2-0.5,0.5-0.5c0.3,0,0.5,0.2,0.5,0.5S12.8,18,12.5,18z M14.5,18c-0.3,0-0.5-0.2-0.5-0.5s0.2-0.5,0.5-0.5c0.3,0,0.5,0.2,0.5,0.5
			S14.8,18,14.5,18z M21.5,18c-0.3,0-0.5-0.2-0.5-0.5s0.2-0.5,0.5-0.5c0.3,0,0.5,0.2,0.5,0.5S21.8,18,21.5,18z"/>
		<rect x="9" y="22" fill="#FFFFFF" width="1" height="2"/>
		<rect x="22" y="22" fill="#FFFFFF" width="1" height="2"/>
	</g>
</g>
<g>
	<path fill="#999999" d="M48,0c-8.8,0-16,7.2-16,16s7.2,16,16,16s16-7.2,16-16S56.8,0,48,0z M48,29.5c-7.5,0-13.5-6-13.5-13.5
		S40.5,2.5,48,2.5c7.5,0,13.5,6,13.5,13.5S55.5,29.5,48,29.5z"/>
	<g>
		<path fill="#999999" d="M54.8,11.6l-1.6-3.1C53.1,8.2,52.8,8,52.5,8h-9c-0.3,0-0.6,0.2-0.7,0.4l-1.6,3.1c-0.1,0.2-0.2,0.7-0.2,0.9
			v2c0,0.3,0.2,0.5,0.5,0.5h13c0.3,0,0.5-0.2,0.5-0.5v-2C55,12.2,54.9,11.8,54.8,11.6z M42.5,14c-0.3,0-0.5-0.2-0.5-0.5
			s0.2-0.5,0.5-0.5c0.3,0,0.5,0.2,0.5,0.5S42.8,14,42.5,14z M44.5,14c-0.3,0-0.5-0.2-0.5-0.5s0.2-0.5,0.5-0.5c0.3,0,0.5,0.2,0.5,0.5
			S44.8,14,44.5,14z M46.5,14c-0.3,0-0.5-0.2-0.5-0.5s0.2-0.5,0.5-0.5c0.3,0,0.5,0.2,0.5,0.5S46.8,14,46.5,14z M53.5,14
			c-0.3,0-0.5-0.2-0.5-0.5s0.2-0.5,0.5-0.5c0.3,0,0.5,0.2,0.5,0.5S53.8,14,53.5,14z"/>
		<path fill="#999999" d="M54.5,16h-13c-0.3,0-0.5,0.2-0.5,0.5v2c0,0.3,0.2,0.5,0.5,0.5h4c0.3,0,0.7,0,1,0c0.1,0,0.3,0,0.5,0v3h-4v2
			h4h2h4v-2h-4v-3c0.2,0,0.4,0,0.5,0c0.3,0,0.7,0,1,0h4c0.3,0,0.5-0.2,0.5-0.5v-2C55,16.2,54.8,16,54.5,16z M42.5,18
			c-0.3,0-0.5-0.2-0.5-0.5s0.2-0.5,0.5-0.5c0.3,0,0.5,0.2,0.5,0.5S42.8,18,42.5,18z M44.5,18c-0.3,0-0.5-0.2-0.5-0.5
			s0.2-0.5,0.5-0.5c0.3,0,0.5,0.2,0.5,0.5S44.8,18,44.5,18z M46.5,18c-0.3,0-0.5-0.2-0.5-0.5s0.2-0.5,0.5-0.5c0.3,0,0.5,0.2,0.5,0.5
			S46.8,18,46.5,18z M53.5,18c-0.3,0-0.5-0.2-0.5-0.5s0.2-0.5,0.5-0.5c0.3,0,0.5,0.2,0.5,0.5S53.8,18,53.5,18z"/>
		<rect x="41" y="22" fill="#999999" width="1" height="2"/>
		<rect x="54" y="22" fill="#999999" width="1" height="2"/>
	</g>
</g>
</svg>
