<svg xmlns="http://www.w3.org/2000/svg" version="1.1" x="0" y="0" width="64" height="32" viewBox="0" enable-background="new 0 0 64 32" xml:space="preserve"><path fill="#FFF" d="M16 0C7.2 0 0 7.2 0 16s7.2 16 16 16 16-7.2 16-16S24.8 0 16 0zM16 29.5c-7.5 0-13.5-6-13.5-13.5S8.5 2.5 16 2.5s13.5 6 13.5 13.5S23.5 29.5 16 29.5z"/><path fill="#FFF" d="M22.8 11.6l-1.6-3.1C21.1 8.2 20.8 8 20.5 8h-9c-0.3 0-0.6 0.2-0.7 0.4l-1.6 3.1C9.1 11.8 9 12.2 9 12.5v2C9 14.8 9.2 15 9.5 15h13c0.3 0 0.5-0.2 0.5-0.5v-2C23 12.2 22.9 11.8 22.8 11.6zM10.5 14c-0.3 0-0.5-0.2-0.5-0.5s0.2-0.5 0.5-0.5c0.3 0 0.5 0.2 0.5 0.5S10.8 14 10.5 14zM12.5 14c-0.3 0-0.5-0.2-0.5-0.5s0.2-0.5 0.5-0.5c0.3 0 0.5 0.2 0.5 0.5S12.8 14 12.5 14zM14.5 14c-0.3 0-0.5-0.2-0.5-0.5s0.2-0.5 0.5-0.5c0.3 0 0.5 0.2 0.5 0.5S14.8 14 14.5 14zM21.5 14c-0.3 0-0.5-0.2-0.5-0.5s0.2-0.5 0.5-0.5c0.3 0 0.5 0.2 0.5 0.5S21.8 14 21.5 14zM22.5 16h-13C9.2 16 9 16.2 9 16.5v2C9 18.8 9.2 19 9.5 19h4c0.3 0 0.7 0 1 0 0.1 0 0.3 0 0.5 0v3h-4v2h4 2 4v-2h-4v-3c0.2 0 0.4 0 0.5 0 0.3 0 0.7 0 1 0h4c0.3 0 0.5-0.2 0.5-0.5v-2C23 16.2 22.8 16 22.5 16zM10.5 18c-0.3 0-0.5-0.2-0.5-0.5s0.2-0.5 0.5-0.5c0.3 0 0.5 0.2 0.5 0.5S10.8 18 10.5 18zM12.5 18c-0.3 0-0.5-0.2-0.5-0.5s0.2-0.5 0.5-0.5c0.3 0 0.5 0.2 0.5 0.5S12.8 18 12.5 18zM14.5 18c-0.3 0-0.5-0.2-0.5-0.5s0.2-0.5 0.5-0.5c0.3 0 0.5 0.2 0.5 0.5S14.8 18 14.5 18zM21.5 18c-0.3 0-0.5-0.2-0.5-0.5s0.2-0.5 0.5-0.5c0.3 0 0.5 0.2 0.5 0.5S21.8 18 21.5 18z"/><rect x="9" y="22" fill="#FFF" width="1" height="2"/><rect x="22" y="22" fill="#FFF" width="1" height="2"/><path fill="#999999" d="M48 0c-8.8 0-16 7.2-16 16s7.2 16 16 16 16-7.2 16-16S56.8 0 48 0zM48 29.5c-7.5 0-13.5-6-13.5-13.5S40.5 2.5 48 2.5c7.5 0 13.5 6 13.5 13.5S55.5 29.5 48 29.5z"/><path fill="#999999" d="M54.8 11.6l-1.6-3.1C53.1 8.2 52.8 8 52.5 8h-9c-0.3 0-0.6 0.2-0.7 0.4l-1.6 3.1c-0.1 0.2-0.2 0.7-0.2 0.9v2c0 0.3 0.2 0.5 0.5 0.5h13c0.3 0 0.5-0.2 0.5-0.5v-2C55 12.2 54.9 11.8 54.8 11.6zM42.5 14c-0.3 0-0.5-0.2-0.5-0.5s0.2-0.5 0.5-0.5c0.3 0 0.5 0.2 0.5 0.5S42.8 14 42.5 14zM44.5 14c-0.3 0-0.5-0.2-0.5-0.5s0.2-0.5 0.5-0.5c0.3 0 0.5 0.2 0.5 0.5S44.8 14 44.5 14zM46.5 14c-0.3 0-0.5-0.2-0.5-0.5s0.2-0.5 0.5-0.5c0.3 0 0.5 0.2 0.5 0.5S46.8 14 46.5 14zM53.5 14c-0.3 0-0.5-0.2-0.5-0.5s0.2-0.5 0.5-0.5c0.3 0 0.5 0.2 0.5 0.5S53.8 14 53.5 14zM54.5 16h-13c-0.3 0-0.5 0.2-0.5 0.5v2c0 0.3 0.2 0.5 0.5 0.5h4c0.3 0 0.7 0 1 0 0.1 0 0.3 0 0.5 0v3h-4v2h4 2 4v-2h-4v-3c0.2 0 0.4 0 0.5 0 0.3 0 0.7 0 1 0h4c0.3 0 0.5-0.2 0.5-0.5v-2C55 16.2 54.8 16 54.5 16zM42.5 18c-0.3 0-0.5-0.2-0.5-0.5s0.2-0.5 0.5-0.5c0.3 0 0.5 0.2 0.5 0.5S42.8 18 42.5 18zM44.5 18c-0.3 0-0.5-0.2-0.5-0.5s0.2-0.5 0.5-0.5c0.3 0 0.5 0.2 0.5 0.5S44.8 18 44.5 18zM46.5 18c-0.3 0-0.5-0.2-0.5-0.5s0.2-0.5 0.5-0.5c0.3 0 0.5 0.2 0.5 0.5S46.8 18 46.5 18zM53.5 18c-0.3 0-0.5-0.2-0.5-0.5s0.2-0.5 0.5-0.5c0.3 0 0.5 0.2 0.5 0.5S53.8 18 53.5 18z"/><rect x="41" y="22" fill="#999999" width="1" height="2"/><rect x="54" y="22" fill="#999999" width="1" height="2"/></svg>