<?xml version="1.0" encoding="utf-8"?>
<!-- Generator: Adobe Illustrator 17.1.0, SVG Export Plug-In . SVG Version: 6.00 Build 0)  -->
<!DOCTYPE svg PUBLIC "-//W3C//DTD SVG 1.1//EN" "http://www.w3.org/Graphics/SVG/1.1/DTD/svg11.dtd">
<svg version="1.1" id="Layer_1" xmlns="http://www.w3.org/2000/svg" xmlns:xlink="http://www.w3.org/1999/xlink" x="0px" y="0px"
	 width="64px" height="32px" viewBox="0 0 64 32" enable-background="new 0 0 64 32" xml:space="preserve">
<g>
	<path fill="#999999" d="M48,0c-8.8,0-16,7.2-16,16s7.2,16,16,16s16-7.2,16-16S56.8,0,48,0z M48,29.5c-7.5,0-13.5-6-13.5-13.5
		S40.5,2.5,48,2.5c7.5,0,13.5,6,13.5,13.5S55.5,29.5,48,29.5z"/>
	<g>
		<path fill="#999999" d="M48.3,17.2l1.2-1.2l-1.5-1.5l-1.2,1.2c-0.2-0.1-0.4-0.2-0.6-0.2v-1.6H44v1.6c-0.2,0.1-0.4,0.1-0.6,0.2
			l-1.2-1.2l-1.5,1.5l1.2,1.2c-0.1,0.2-0.2,0.4-0.2,0.6H40V20h1.6c0.1,0.2,0.1,0.4,0.2,0.6l-1.2,1.2l1.5,1.5l1.2-1.2
			c0.2,0.1,0.4,0.2,0.6,0.2V24h2.2v-1.6c0.2-0.1,0.4-0.1,0.6-0.2l1.2,1.2l1.5-1.5l-1.2-1.2c0.1-0.2,0.2-0.4,0.2-0.6h1.6v-2.2h-1.6
			C48.5,17.6,48.4,17.4,48.3,17.2z M45.1,21.1c-1.2,0-2.2-1-2.2-2.2c0-1.2,1-2.2,2.2-2.2c1.2,0,2.2,1,2.2,2.2
			C47.3,20.1,46.3,21.1,45.1,21.1z"/>
		<path fill="#999999" d="M56,12.3v-1.5h-1.1c0-0.1-0.1-0.3-0.2-0.4l0.8-0.8l-1.1-1.1l-0.8,0.8c-0.1-0.1-0.3-0.1-0.4-0.2V8h-1.5v1.1
			c-0.1,0-0.3,0.1-0.4,0.2l-0.8-0.8l-1.1,1.1l0.8,0.8c-0.1,0.1-0.1,0.3-0.2,0.4h-1.1v1.5H50c0,0.1,0.1,0.3,0.2,0.4l-0.8,0.8l1.1,1.1
			l0.8-0.8c0.1,0.1,0.3,0.1,0.4,0.2v1.1h1.5V14c0.1,0,0.3-0.1,0.4-0.2l0.8,0.8l1.1-1.1l-0.8-0.8c0.1-0.1,0.1-0.3,0.2-0.4H56z
			 M52.4,13.1c-0.8,0-1.5-0.7-1.5-1.5c0-0.8,0.7-1.5,1.5-1.5c0.8,0,1.5,0.7,1.5,1.5C54,12.4,53.3,13.1,52.4,13.1z"/>
	</g>
</g>
<g>
	<path fill="#FFFFFF" d="M16,0C7.2,0,0,7.2,0,16s7.2,16,16,16s16-7.2,16-16S24.8,0,16,0z M16,29.5c-7.5,0-13.5-6-13.5-13.5
		S8.5,2.5,16,2.5s13.5,6,13.5,13.5S23.5,29.5,16,29.5z"/>
	<g>
		<path fill="#FFFFFF" d="M16.3,17.2l1.2-1.2l-1.5-1.5l-1.2,1.2c-0.2-0.1-0.4-0.2-0.6-0.2v-1.6H12v1.6c-0.2,0.1-0.4,0.1-0.6,0.2
			l-1.2-1.2l-1.5,1.5l1.2,1.2c-0.1,0.2-0.2,0.4-0.2,0.6H8V20h1.6c0.1,0.2,0.1,0.4,0.2,0.6l-1.2,1.2l1.5,1.5l1.2-1.2
			c0.2,0.1,0.4,0.2,0.6,0.2V24h2.2v-1.6c0.2-0.1,0.4-0.1,0.6-0.2l1.2,1.2l1.5-1.5l-1.2-1.2c0.1-0.2,0.2-0.4,0.2-0.6h1.6v-2.2h-1.6
			C16.5,17.6,16.4,17.4,16.3,17.2z M13.1,21.1c-1.2,0-2.2-1-2.2-2.2c0-1.2,1-2.2,2.2-2.2c1.2,0,2.2,1,2.2,2.2
			C15.3,20.1,14.3,21.1,13.1,21.1z"/>
		<path fill="#FFFFFF" d="M24,12.3v-1.5h-1.1c0-0.1-0.1-0.3-0.2-0.4l0.8-0.8l-1.1-1.1l-0.8,0.8c-0.1-0.1-0.3-0.1-0.4-0.2V8h-1.5v1.1
			c-0.1,0-0.3,0.1-0.4,0.2l-0.8-0.8l-1.1,1.1l0.8,0.8c-0.1,0.1-0.1,0.3-0.2,0.4h-1.1v1.5H18c0,0.1,0.1,0.3,0.2,0.4l-0.8,0.8l1.1,1.1
			l0.8-0.8c0.1,0.1,0.3,0.1,0.4,0.2v1.1h1.5V14c0.1,0,0.3-0.1,0.4-0.2l0.8,0.8l1.1-1.1l-0.8-0.8c0.1-0.1,0.1-0.3,0.2-0.4H24z
			 M20.4,13.1c-0.8,0-1.5-0.7-1.5-1.5c0-0.8,0.7-1.5,1.5-1.5c0.8,0,1.5,0.7,1.5,1.5C22,12.4,21.3,13.1,20.4,13.1z"/>
	</g>
</g>
</svg>
