<svg xmlns="http://www.w3.org/2000/svg" version="1.1" x="0px" y="0px" width="64px" height="32px" viewBox="0 0 64 32" enable-background="new 0 0 64 32" xml:space="preserve"><path fill="#999999" d="M48 0c-8.8 0-16 7.2-16 16s7.2 16 16 16 16-7.2 16-16S56.8 0 48 0zM48 29.5c-7.5 0-13.5-6-13.5-13.5S40.5 2.5 48 2.5s13.5 6 13.5 13.5S55.5 29.5 48 29.5z"/><polygon fill="#999999" points="47,14.7 47.4,20 48.6,20 49,14.6 49,8 47,8 "/><rect x="47" y="22" fill="#999999" width="2" height="2"/><path fill="#FFF" d="M16 0C7.2 0 0 7.2 0 16s7.2 16 16 16 16-7.2 16-16S24.8 0 16 0zM16 29.5c-7.5 0-13.5-6-13.5-13.5S8.5 2.5 16 2.5s13.5 6 13.5 13.5S23.5 29.5 16 29.5z"/><polygon fill="#FFF" points="15,14.7 15.4,20 16.6,20 17,14.6 17,8 15,8 "/><rect x="15" y="22" fill="#FFF" width="2" height="2"/></svg>