<?xml version="1.0" encoding="utf-8"?>
<!-- Generator: Adobe Illustrator 17.1.0, SVG Export Plug-In . SVG Version: 6.00 Build 0)  -->
<!DOCTYPE svg PUBLIC "-//W3C//DTD SVG 1.1//EN" "http://www.w3.org/Graphics/SVG/1.1/DTD/svg11.dtd">
<svg version="1.1" id="Layer_1" xmlns="http://www.w3.org/2000/svg" xmlns:xlink="http://www.w3.org/1999/xlink" x="0px" y="0px"
	 width="64px" height="32px" viewBox="0 0 64 32" enable-background="new 0 0 64 32" xml:space="preserve">
<g>
	<g>
		<path fill="#999999" d="M48,0c-8.8,0-16,7.2-16,16s7.2,16,16,16c8.8,0,16-7.2,16-16S56.8,0,48,0z M48,29.5
			c-7.5,0-13.5-6-13.5-13.5S40.5,2.5,48,2.5c7.5,0,13.5,6,13.5,13.5S55.5,29.5,48,29.5z"/>
		<polygon fill="#999999" points="47,14.7 47.4,20 48.6,20 49,14.6 49,8 47,8 		"/>
		<rect x="47" y="22" fill="#999999" width="2" height="2"/>
	</g>
	<g>
		<path fill="#FFFFFF" d="M16,0C7.2,0,0,7.2,0,16s7.2,16,16,16c8.8,0,16-7.2,16-16S24.8,0,16,0z M16,29.5c-7.5,0-13.5-6-13.5-13.5
			S8.5,2.5,16,2.5c7.5,0,13.5,6,13.5,13.5S23.5,29.5,16,29.5z"/>
		<polygon fill="#FFFFFF" points="15,14.7 15.4,20 16.6,20 17,14.6 17,8 15,8 		"/>
		<rect x="15" y="22" fill="#FFFFFF" width="2" height="2"/>
	</g>
</g>
<g>
	<g>
		<g>
			<path fill="#999999" d="M48,32c-8.8,0-16,7.2-16,16s7.2,16,16,16c8.8,0,16-7.2,16-16S56.8,32,48,32z M48,61.5
				c-7.5,0-13.5-6-13.5-13.5s6-13.5,13.5-13.5c7.5,0,13.5,6,13.5,13.5S55.5,61.5,48,61.5z"/>
		</g>
	</g>
	<g>
		<g>
			<path fill="#FFFFFF" d="M16,32C7.2,32,0,39.2,0,48s7.2,16,16,16c8.8,0,16-7.2,16-16S24.8,32,16,32z M16,61.5
				c-7.5,0-13.5-6-13.5-13.5s6-13.5,13.5-13.5c7.5,0,13.5,6,13.5,13.5S23.5,61.5,16,61.5z"/>
		</g>
	</g>
</g>
</svg>
